<?xml version="1.0" encoding="utf-8"?>
<!-- Generator: Adobe Illustrator 19.0.0, SVG Export Plug-In . SVG Version: 6.00 Build 0)  -->
<svg version="1.1" xmlns="http://www.w3.org/2000/svg" xmlns:xlink="http://www.w3.org/1999/xlink" x="0px" y="0px"
	 viewBox="0 0 500 500" style="enable-background:new 0 0 500 500;" xml:space="preserve">
<style type="text/css">
	.st0{fill:#3F3F3F;}
	.st1{fill:#FFFFFF;}
	.st2{fill:#8CA7CF;}
	.st3{fill:#D9D9D9;}
	.st4{fill:#7DB8D1;}
	.st5{fill:#5598B5;}
	.st6{fill:#A6E3DF;}
	.st7{fill:#7FD4C6;}
	.st8{fill:#4B968B;}
	.st9{fill:#405296;}
	.st10{fill:#2D3969;}
	.st11{clip-path:url(#SVGID_2_);}
	.st12{fill:#9C6C6C;}
	.st13{fill:#DEEBFF;}
	.st14{fill:#B5B5B5;}
	.st15{fill:#2E2E2E;}
	.st16{fill:#1F0B1B;}
	.st17{fill:#F8C0BE;}
	.st18{fill:#FE8A90;}
	.st19{fill:#F0F0F0;}
	.st20{fill:#85EDD5;}
	.st21{fill:#5A71CE;}
	.st22{fill:#1B2340;}
	.st23{fill:#593434;}
	.st24{fill:#404040;}
	.st25{fill:#5C2051;}
	.st26{fill:#8092E3;}
	.st27{fill:#1F1F1F;}
	.st28{fill:#27335C;}
	.st29{fill:#1C2542;}
	.st30{fill:#D48F28;}
	.st31{fill:#B57A22;}
	.st32{fill:#E3A344;}
	.st33{fill:#F8D4BE;}
	.st34{fill:#CC976F;}
	.st35{fill:#F79EB0;}
	.st36{fill:#D46C81;}
	.st37{fill:#495DA8;}
</style>
<g id="BACKGROUND">
	<rect x="0" width="503.2" height="444.9"/>
	<g>
		<rect x="0" y="60.3" width="503.2" height="444.9"/>
		<g>
			<g>
				<path class="st0" d="M441.9,155.1c-3.3,12.3-4.3,25.1-2.9,37.7c1.8,15.9,7.3,31.2,12.1,46.6c6.6,21.2,10.3,39,3.4,60.4
					c-2.4,7.5-5.2,15.8-10,22.3c-11.3,15.4-20,29.5-25.2,47.6c-4,13.8-6,28-5.9,42.2c0,14.4-1.5,28.6-2,43.1c0,0,0,0,0,0
					s-343.1-2.6-343.6-2.6c-3.6,0-7.3-15.8-7.7-17.6c-2.7-12.2-1.5-24.4,4.1-35.9c7.9-16.3,16-29.3,8.1-47.2
					c-5.2-11.8-15.3-21-21.1-32.4c-15.6-31-18.8-66.8-9.5-99.9c9.9-35.6,32.8-60.5,61.9-85.3c26.1-22.3,47.7-48.7,70.7-73.4
					c80.3,0,160.6,0,241,0c29,0,58.1,0,87.1,0c0,0.2,0,5.7,0,5.9c0,2.9,0,5.9,0,5.9c-0.1,4.9-13,15.2-16.6,19
					c-3.2,3.4-6.9,6.8-13.6,14c-8.8,9.5-16.9,18.3-23.2,30.9C444.7,144.5,442.9,151.1,441.9,155.1z"/>
			</g>
			<path class="st0" d="M152.3,60.3c-2.7,0-18,20.5-20.8,23.3c-12.4,12.3-25,24.5-37.8,36.4c-10.1,9.4-24.7,19.8-40.4,14.9
				c-19.6-6.2-16.7-30.7-9.9-44c2.1-4.1,15.1-30.6,20.7-30.6C64,60.3,152,60.3,152.3,60.3z"/>
			<path class="st0" d="M432,414.1c-4.3-13.8,0-33.2,7.6-45.6c7.2-11.6,24.2-22,37.9-12c10.8,7.9,10.1,22.3,6.8,33.1
				c-3.8,12.7-16.8,38.5-35.1,37.8C439.7,427,434.4,421.6,432,414.1z"/>
		</g>
	</g>
	<path d="M317.1,47.9c0,0,169.4-6.7,177.2,123.3c7.8,130,5.1-115.2,5.1-115.2L317.1,47.9z"/>
</g>
<g id="OBJECTS">
	<g>
		<path class="st1" d="M91.9,147.5c-0.1-0.1-9.7-11.1-19.5-28l0,0l-0.1-0.1c1.6-1.3,7.7-6.9,3.7-14.7l-0.2-0.5l-0.5,0.3
			c-5,3.2-5.5,7.9-5.1,11.2c-1.4-2.6-2.8-5.2-4.2-8c-0.7-1.3-1.3-2.7-2-4.1l0.1,0l-0.1-0.1c1.7-1.1,8.4-6,5.3-14.2l-0.2-0.5
			l-0.5,0.2c-5.5,2.7-6.4,7.5-6.3,10.9c-1.6-3.7-3.1-7.6-4.5-11.7c2-0.9,9.1-4.8,7.2-13.3L65,74.2l-0.5,0.2c-5.9,1.9-7.5,6.6-7.8,10
			c-1.2-3.8-2.2-7.8-3.1-11.9c2-0.8,9.4-4.1,8.2-12.7l-0.1-0.5l-0.5,0.1c-5.7,1.4-7.7,5.6-8.4,8.9c-0.7-4-1.2-8-1.5-12.2
			c2.1-0.4,10-2.4,10.3-11.1l0-0.6l-0.5,0c-6.1,0.4-8.8,4.4-10,7.5c-0.1-5.3,0.1-10.6,0.9-16c2.1,0,10.3-0.8,11.9-9.4l0.1-0.5
			l-0.5,0c-5.8-0.5-9,2.7-10.7,5.5c0.6-3.3,1.5-6.6,2.5-9.9c1.2-0.8,8.5-6.2,4.7-14.7l-0.2-0.5l-0.5,0.3c-8.1,4.5-5.4,13.3-5,14.6
			c-1.1,3.4-1.9,6.7-2.6,10.1c-0.7-3.2-2.6-7.4-8.3-8.8l-0.5-0.1l-0.1,0.5c-1.4,8.7,6.2,12.1,8.1,12.8l0,0.1l0.1,0
			c-0.7,5.1-1,10.1-0.9,15c-1.2-3-3.9-6.3-9.3-6.9l-0.5-0.1l0,0.6c0,8.8,7.9,11,10,11.5l0,0.1l0.1,0c0.3,4,0.8,8,1.4,11.9
			c-1.7-2.8-4.9-5.9-10.6-5.5l-0.5,0l0.1,0.5c1.5,8.6,9.8,9.4,11.8,9.5l0,0.1l0.1,0c0.8,3.6,1.7,7.1,2.7,10.5c-2-2.5-5.3-5-10.6-4.1
			l-0.5,0.1l0.1,0.5c2,7.9,9.3,8.6,12,8.6c0.2,0,0.4,0,0.5,0l0,0.1l0.1,0c1.3,3.7,2.6,7.3,4.1,10.7c-2.3-2.3-6-4.4-11.2-2.8
			l-0.5,0.2l0.2,0.5c2.5,5.9,7.5,7,10.9,7c1.2,0,2.2-0.1,2.7-0.2c0.7,1.5,1.4,3,2.1,4.4c1.3,2.6,2.6,5.1,3.9,7.5
			c-2.5-2.1-6.5-3.9-11.7-1.7l-0.5,0.2l0.3,0.5c2.6,4.8,6.7,5.9,9.9,5.9c2,0,3.6-0.4,4.3-0.6l0.1,0.1l0,0
			c9.9,17.1,19.5,28.1,19.6,28.2c0.1,0.1,0.2,0.2,0.4,0.2c0.1,0,0.2,0,0.3-0.1C92,148,92,147.7,91.9,147.5z M64.3,75.5
			c1.3,7.3-4.7,10.7-6.6,11.6C57.5,84.9,57.4,78.1,64.3,75.5z M60.9,60.4c0.8,7.4-5.4,10.3-7.4,11.1C53.4,69.3,53.8,62.4,60.9,60.4z
			 M60.6,45.4c-0.6,7.4-7.2,9.2-9.3,9.5C51.6,52.8,53.3,46.1,60.6,45.4z M62.2,26.8c0.2,0,0.4,0,0.6,0c-1.7,7.2-8.5,8-10.6,8
			C52.8,32.9,55.3,26.8,62.2,26.8z M68.7,90c2.3,7-3.1,11.2-4.9,12.4C63.3,100.3,62.3,93.5,68.7,90z M59.3,7.7
			c2.7,6.9-2.5,11.4-4.2,12.6C54.4,18.3,53,11.6,59.3,7.7z M43.7,23.5c7.1,2.1,7.4,9,7.3,11.1C49.1,33.9,42.9,30.9,43.7,23.5z
			 M41.2,45c7.3,1,8.7,7.7,8.9,9.9C48.1,54.4,41.5,52.3,41.2,45z M41.8,63.5c7.4-0.3,9.9,6.1,10.5,8.1
			C50.2,71.5,43.4,70.6,41.8,63.5z M45.5,79.9c7.4-0.8,10.3,5.4,11.1,7.4C54.4,87.4,47.6,87,45.5,79.9z M50.7,97.1
			c6.9-1.8,10.7,3.4,11.9,5.5c0,0.1,0.1,0.1,0.1,0.2C60.5,103.2,53.7,103.7,50.7,97.1z M75.4,105.6c3.1,6.7-1.9,11.5-3.5,12.8
			C71.2,116.5,69.4,109.8,75.4,105.6z M58.3,114.7c6.9-2.6,11.3,2.6,12.6,4.3C68.8,119.6,62.1,121,58.3,114.7z"/>
		<g>
			<path class="st1" d="M118.5,308.6c0,0-9.8-41.8,13-53.6c22.9-11.9,48.7-1.8,56.1,9.4c0,0-4.1-46.1,42.5-41.4
				c46.6,4.7,25.2,86.2,25.2,86.2L118.5,308.6z"/>
			<g>
				<path class="st2" d="M184.1,309.6c-0.1-0.1-4.2-2.8-9.6-7.4c0-1.2,0.1-5.9-0.1-11.6c0.4-0.6,7.3-10.1,8.3-15.8
					c0-0.3-0.1-0.5-0.4-0.6c-0.3,0-0.5,0.1-0.6,0.4c-0.8,4.4-5.5,11.6-7.4,14.3c-0.2-7-0.7-15-1.9-19.4c-0.1-0.3-0.3-0.4-0.6-0.4
					c-0.3,0.1-0.4,0.3-0.4,0.6c2.1,7.5,2,26.7,2,31.5c-8.3-7.4-19-19.2-22.7-33.2c-0.1-0.3-0.3-0.4-0.6-0.4
					c-0.3,0.1-0.4,0.3-0.4,0.6c2.6,9.6,8.3,18.2,14.4,25c-3.4-0.8-12.4-3.2-20.8-7.7l-2.2-8.9c-0.1-0.3-0.3-0.4-0.6-0.4
					c-0.3,0.1-0.4,0.3-0.4,0.6l1.9,8c-4.3-2.5-8.5-5.5-11.5-9.3c-0.2-0.2-0.5-0.2-0.7-0.1c-0.2,0.2-0.2,0.5-0.1,0.7
					c3.3,4.1,7.9,7.4,12.7,10c0.1,0.1,0.1,0.1,0.2,0.1c10.3,5.6,21.4,7.9,22.5,8.2c2.8,3.1,5.6,5.8,8.2,8c0.1,0.1,0.1,0.2,0.2,0.2
					c0.5,0.5,1.1,0.9,1.6,1.3c-4.6-0.3-19-1.5-31.5-5l-5.8-8.1c-0.2-0.2-0.5-0.3-0.7-0.1c-0.2,0.2-0.3,0.5-0.1,0.7l5.1,7.1
					c-3.7-1.1-7.3-2.5-10.2-4.1c-0.2-0.1-0.5,0-0.7,0.2c-0.1,0.2,0,0.5,0.2,0.7c3.4,1.8,7.5,3.3,11.8,4.5c0,0,0.1,0,0.1,0
					c14.5,4.1,31.6,5.1,33.2,5.1c4,3.2,6.8,5.1,6.9,5.1c0.1,0.1,0.2,0.1,0.3,0.1c0.2,0,0.3-0.1,0.4-0.2
					C184.4,310.1,184.3,309.7,184.1,309.6z"/>
				<path class="st2" d="M245.1,284.7c-0.2-0.2-0.5-0.1-0.7,0.1c-2,2.5-5.4,5-9.2,7.3l3.6-12.1c0.1-0.3-0.1-0.5-0.3-0.6
					c-0.3-0.1-0.5,0.1-0.6,0.3l-3.9,13.2c-6.6,3.8-14,6.7-16.4,7.6c0.2-1.1,0.4-2.2,0.7-3.4c0,0,0,0,0-0.1c0.7-3.7,1.4-7.9,2.2-12.3
					c1.6-1.3,17.4-14.3,23.7-30.5c0.1-0.3,0-0.5-0.3-0.6c-0.3-0.1-0.5,0-0.6,0.3c-5.5,14.3-18.7,26.2-22.5,29.4
					c0.6-3.8,1.2-7.7,1.8-11.6c0-0.1,0-0.1,0-0.2c1.6-11.5,2.8-23.1,2.3-30.9c0-0.3-0.2-0.5-0.5-0.5c-0.3,0-0.5,0.3-0.5,0.5
					c0.5,7.6-0.6,18.7-2.1,29.9c-2.6-2.5-11.6-11.9-13.1-23.5c0-0.3-0.3-0.5-0.6-0.4c-0.3,0-0.5,0.3-0.4,0.6
					c0.7,5.9,3.3,11.2,6.1,15.4c-2-0.5-6.4-2-9.7-6.1c-0.2-0.2-0.5-0.2-0.7-0.1c-0.2,0.2-0.2,0.5-0.1,0.7c4.4,5.4,10.3,6.5,11.3,6.6
					c3.1,4.4,6.1,7.3,7,8c-1.3,8.9-2.8,17.7-4.1,24.6c-1.5-0.9-5.8-3.7-10.2-7.8l-1.2-11.5c0-0.3-0.3-0.5-0.6-0.4
					c-0.3,0-0.5,0.3-0.4,0.6l1.1,10.3c-3.5-3.4-6.9-7.7-9.1-12.7c-0.1-0.3-0.4-0.4-0.7-0.3c-0.3,0.1-0.4,0.4-0.3,0.7
					c2.5,5.5,6.4,10.3,10.3,13.9c0,0.1,0.1,0.1,0.2,0.1c4.8,4.6,9.5,7.5,10.7,8.2c-1.4,7.5-2.5,12.6-2.5,12.8
					c-0.1,0.3,0.1,0.5,0.4,0.6c0,0,0.1,0,0.1,0c0.2,0,0.4-0.2,0.5-0.4c0-0.1,0.7-3.4,1.7-8.5c2.5-0.9,21.7-8.2,27.9-16.2
					C245.3,285.2,245.3,284.9,245.1,284.7z"/>
			</g>
		</g>
		<g>
			<path class="st1" d="M375.3,301.4c0,0-1.5-81.5,13.9-112c15.5-30.5,43.4-50.1,54.7-37.2c11.4,12.9,1,44.4-9.3,66.6
				c-10.3,22.2-26.3,90.3-26.3,90.3L375.3,301.4z"/>
			<path class="st2" d="M436.6,186.3c-0.1-0.3-0.4-0.4-0.6-0.3l-19,6.7c3.2-7.3,6.7-13.9,10.5-19.5c0.2-0.2,0.1-0.5-0.1-0.7
				c-0.2-0.2-0.5-0.1-0.7,0.1c-3.8,5.7-7.3,12.3-10.5,19.6l-6-17c-0.1-0.3-0.4-0.4-0.6-0.3c-0.3,0.1-0.4,0.4-0.3,0.6l6.4,18
				c-3.1,7-5.9,14.5-8.5,22.2l-7.8-16.3c-0.1-0.3-0.4-0.4-0.7-0.2c-0.2,0.1-0.4,0.4-0.2,0.7l8.2,17.2c-2.3,7-4.4,14.2-6.4,21.3
				l-7.3-16.3c-0.1-0.3-0.4-0.4-0.7-0.3c-0.3,0.1-0.4,0.4-0.3,0.7l7.8,17.4c-2,7.5-3.8,14.9-5.4,21.8l-5.9-16.6
				c-0.1-0.3-0.4-0.4-0.6-0.3c-0.3,0.1-0.4,0.4-0.3,0.6l6.4,18.1c-1.5,6.5-2.7,12.5-3.7,17.8l-5.9-16.6c-0.1-0.3-0.4-0.4-0.6-0.3
				c-0.3,0.1-0.4,0.4-0.3,0.6l6.4,18.1c0,0,0,0,0,0c-2.4,12.3-3.6,20.3-3.6,20.6c0,0.3,0.1,0.5,0.4,0.6c0,0,0,0,0.1,0
				c0.2,0,0.5-0.2,0.5-0.4c0-0.3,1.3-8.3,3.6-20.6l19.8-7c0.3-0.1,0.4-0.4,0.3-0.6c-0.1-0.3-0.4-0.4-0.6-0.3l-19.2,6.8
				c1.1-5.5,2.4-11.7,3.9-18.5l19.9-7c0.3-0.1,0.4-0.4,0.3-0.6c-0.1-0.3-0.4-0.4-0.6-0.3l-19.3,6.8c1.6-7.1,3.5-14.7,5.6-22.5
				l19.2-8.6c0.3-0.1,0.4-0.4,0.3-0.7c-0.1-0.3-0.4-0.4-0.7-0.3l-18.5,8.3c1.9-7.1,4.1-14.4,6.4-21.5l19.1-9.1
				c0.2-0.1,0.4-0.4,0.2-0.7c-0.1-0.2-0.4-0.4-0.7-0.2l-18.2,8.6c2.6-7.7,5.4-15.2,8.4-22.2l19.9-7
				C436.5,186.8,436.7,186.5,436.6,186.3z"/>
		</g>
		<g>
			<path class="st1" d="M396,298.6c0,0,25.8-53,43.6-48.3c17.8,4.6,7.5,25.5-1.3,36.6c-8.8,11.1-31.6,23.5-31.6,23.5l-13.7-3.3
				L396,298.6z"/>
			<path class="st2" d="M440.5,272.6c-0.1-0.3-0.3-0.4-0.6-0.4l-10.1,2.3c3.1-4.3,5.8-8.3,7.3-11.3c0.1-0.2,0-0.5-0.2-0.7
				c-0.2-0.1-0.5,0-0.7,0.2c-1.5,3-4.1,6.9-7.2,11.2l-0.9-11c0-0.3-0.3-0.5-0.5-0.5c-0.3,0-0.5,0.3-0.5,0.5l1,12.1
				c-2.5,3.4-5.3,7-8.1,10.4v-10.3c0-0.3-0.2-0.5-0.5-0.5c-0.3,0-0.5,0.2-0.5,0.5v11.5c-3.1,3.7-6.1,7.3-8.7,10.4l0.2-10.2
				c0-0.3-0.2-0.5-0.5-0.5c-0.2,0-0.5,0.2-0.5,0.5l-0.2,11.4c-4.2,4.9-7.2,8.3-7.3,8.4c-0.2,0.2-0.2,0.5,0,0.7
				c0.1,0.1,0.2,0.1,0.3,0.1c0.1,0,0.3-0.1,0.4-0.2c0.1-0.1,3.1-3.5,7.3-8.4l10.3-0.9c0.3,0,0.5-0.3,0.5-0.5c0-0.3-0.3-0.5-0.5-0.5
				l-9.3,0.8c2.7-3.1,5.7-6.7,8.8-10.5l12.3-1.9c0.3,0,0.5-0.3,0.4-0.6c0-0.3-0.3-0.5-0.6-0.4l-11.2,1.8c2.8-3.5,5.7-7.1,8.2-10.6
				l11.2-2.6C440.4,273.1,440.5,272.8,440.5,272.6z"/>
		</g>
		<g>
			<path class="st1" d="M69.2,305.8c0,0-15.2-51.4-30.6-72.5s-15.9-53.9,9.3-55.7c25.2-1.8,35.8,35.5,42.7,62.9
				c6.9,27.4,6.1,65.4,6.1,65.4H69.2z"/>
			<path class="st2" d="M90,275.3c-0.2-0.1-0.5-0.1-0.7,0.2l-7.9,12.3c-1.7-7.1-3.3-13.7-5-19.9l8.7-15.9c0.1-0.2,0-0.5-0.2-0.7
				c-0.2-0.1-0.5,0-0.7,0.2l-8.2,15c-2-7.4-4.1-14.1-6.1-20.2l7.5-20.8c0.1-0.3,0-0.5-0.3-0.6c-0.3-0.1-0.5,0-0.6,0.3l-7.1,19.6
				c-3.2-9.6-6.3-17.7-9.1-24.4l5-17.8c0.1-0.3-0.1-0.5-0.3-0.6c-0.3-0.1-0.5,0.1-0.6,0.3l-4.6,16.6c-6.6-15.6-11.3-22.9-11.4-23.1
				c-0.2-0.2-0.5-0.3-0.7-0.1c-0.2,0.2-0.3,0.5-0.1,0.7c0.1,0.2,4.9,7.6,11.5,23.2l-16-4.5c-0.3-0.1-0.5,0.1-0.6,0.3
				c-0.1,0.3,0.1,0.5,0.3,0.6l16.7,4.7c2.8,6.7,5.9,14.8,9.1,24.5l-16.5-8.1c-0.3-0.1-0.5,0-0.7,0.2c-0.1,0.2,0,0.5,0.2,0.7
				l17.4,8.6c2,6.2,4.1,13,6.2,20.4l-14.2-5.4c-0.3-0.1-0.5,0-0.6,0.3c-0.1,0.3,0,0.5,0.3,0.6l14.9,5.7c1.7,6.3,3.4,12.9,5.1,20.1
				l-14.1-5.8c-0.3-0.1-0.5,0-0.7,0.3c-0.1,0.3,0,0.5,0.3,0.7l14.7,6c1.1,5,2.3,10.2,3.4,15.6c0,0.2,0.3,0.4,0.5,0.4
				c0,0,0.1,0,0.1,0c0.3-0.1,0.4-0.3,0.4-0.6c-1.1-5.4-2.2-10.6-3.4-15.6l8.4-13.1C90.3,275.8,90.2,275.5,90,275.3z"/>
		</g>
		<g>
			<path class="st1" d="M76.3,305.8H53.6c0,0-43.5-46.7-33.3-67.4c10.2-20.7,27.1-20.2,36-1.4C65.3,255.8,76.3,305.8,76.3,305.8z"/>
			<path class="st2" d="M67,290.1c-0.3-0.1-0.5,0-0.6,0.3l-3.3,8.3c-1.4-3.9-2.9-7.9-4.4-11.8l4.8-11.5c0.1-0.3,0-0.5-0.3-0.7
				c-0.3-0.1-0.5,0-0.7,0.3l-4.4,10.6c-1.8-4.5-3.6-8.9-5.4-13.1l5.2-13.8c0.1-0.3,0-0.5-0.3-0.6c-0.3-0.1-0.5,0-0.6,0.3l-4.9,12.9
				c-2.4-5.7-4.8-11-6.9-15.5l5.1-12.8c0.1-0.3,0-0.5-0.3-0.7c-0.3-0.1-0.5,0-0.6,0.3l-4.7,11.9c-4.2-9.1-7.2-15-7.3-15.2
				c-0.1-0.2-0.4-0.3-0.7-0.2c-0.2,0.1-0.3,0.4-0.2,0.7c0.1,0.1,3.1,6.1,7.3,15.3l-13.6-2.2c-0.3,0-0.5,0.1-0.6,0.4
				c0,0.3,0.1,0.5,0.4,0.6l14.3,2.3c2.1,4.6,4.5,9.9,7,15.7l-16.6-3.5c-0.3-0.1-0.5,0.1-0.6,0.4c-0.1,0.3,0.1,0.5,0.4,0.6l17.3,3.7
				c1.8,4.3,3.7,8.7,5.4,13.3L43.4,283c-0.3-0.1-0.5,0.1-0.6,0.4c-0.1,0.3,0.1,0.5,0.4,0.6l14.5,3.4c1.5,4,3,8,4.4,12l-9.9-3.6
				c-0.3-0.1-0.5,0-0.6,0.3c-0.1,0.3,0,0.5,0.3,0.6l10.7,3.9c0.6,1.7,1.2,3.4,1.7,5.1c0.1,0.2,0.3,0.3,0.5,0.3c0.1,0,0.1,0,0.2,0
				c0.3-0.1,0.4-0.4,0.3-0.6c-0.6-1.7-1.2-3.5-1.8-5.2l3.7-9.4C67.4,290.5,67.3,290.2,67,290.1z"/>
		</g>
		<g>
			<path class="st1" d="M283.7,309.1c0,0-13.3-75.4,8.5-90.8c21.8-15.5,42-3.1,44.1,18.7c2.1,21.8-9,72.1-9,72.1H283.7z"/>
			<g>
				<path class="st2" d="M296.3,276.1l5.2-26.8c0.1-0.3-0.1-0.5-0.4-0.6c-0.3,0-0.5,0.1-0.6,0.4l-4.7,24.4
					c-1.7-8.8-3.1-17.2-3.2-21.8c0-0.3-0.2-0.5-0.5-0.5c-0.3,0-0.5,0.2-0.5,0.5c0.1,8.3,4.5,28.6,7.4,41.8
					c-3.1-2.3-12.2-9.3-12.6-14.6c0-0.3-0.3-0.5-0.5-0.5c-0.3,0-0.5,0.3-0.5,0.5c0.6,6.4,12.4,14.8,14,15.9c0.2,0.9,0.4,1.7,0.5,2.5
					c0.9,3.8,1.5,6.8,1.6,7.3c0,0.2,0.1,0.4,0.3,0.5c0.1,0,0.1,0,0.2,0c0.2,0,0.4-0.1,0.5-0.3c0.1-0.2,0.1-0.3-1.6-7.7
					C299.7,292,297.9,284,296.3,276.1z"/>
				<path class="st2" d="M328.7,267.2c-0.3-0.1-0.5,0-0.6,0.3c-1.6,4.1-10.2,9.2-13.4,11c2.3-5.4,4.8-11.6,6.9-17.8c0,0,0,0,0-0.1
					c1.7-4.8,3.1-9.7,4.1-14.2c0.1-0.3-0.1-0.5-0.4-0.6c-0.3-0.1-0.5,0.1-0.6,0.4c-0.9,4-2.2,8.3-3.6,12.6
					c-0.9-2.9-2.8-9.5-2.8-14.9c0-0.3-0.2-0.5-0.5-0.5c-0.3,0-0.5,0.2-0.5,0.5c0.1,6.7,2.9,15.1,3.3,16.4
					c-4.8,14-11.3,27.9-13.8,33.2c1-18.6,3.3-54.3,6.3-69.4c0.1-0.3-0.1-0.5-0.4-0.6c-0.3-0.1-0.5,0.1-0.6,0.4
					c-1,5.2-1.9,12.7-2.7,21.1c-1.3-2.2-4.4-8.2-5.4-14.2c0-0.3-0.3-0.5-0.6-0.4c-0.3,0-0.5,0.3-0.4,0.6c1.2,7.8,5.9,15.2,6.1,15.5
					c0,0.1,0.1,0.1,0.2,0.2c-1.6,17.2-2.9,37.6-3.5,49.3c0,0,0,0,0,0c-0.3,5.6-0.5,9.2-0.5,9.3c0,0.3,0.2,0.5,0.5,0.5c0,0,0,0,0,0
					c0.3,0,0.5-0.2,0.5-0.5c0-0.1,0.2-3.7,0.5-9.2c0.4-0.8,3.6-7.4,7.4-16.2c1.5-0.8,13-6.9,15-12.1
					C329.1,267.6,329,267.3,328.7,267.2z"/>
			</g>
		</g>
		<path class="st1" d="M420.4,50.4c0.8-3.6,1.4-7.1,1.6-10.5l0.1,0l0-0.1c2-0.5,9.9-3,9.6-11.7l0-0.6l-0.5,0.1
			c-5.6,0.7-8.1,4.3-9.2,7.4c-0.2-2.8-0.6-5.5-1.3-8.2c0.5-1.3,3.7-9.8-4.1-14.9l-0.5-0.3l-0.3,0.5c-4.3,8.2,2.7,14.1,3.8,14.9
			c0.8,2.8,1.2,5.7,1.3,8.6c-1.3-3.1-4.1-6.9-10.1-7.1l-0.5,0l0,0.5c0.5,8.6,8.4,10.5,10.6,10.8c-0.2,3.7-0.8,7.4-1.8,11.3
			c-0.4-3.3-2.1-7.8-8-9.6l-0.5-0.2l-0.1,0.5c-1.7,8.5,5.5,12.3,7.5,13.2c-1.2,3.9-2.7,7.7-4.3,11.6c0-3.3-1.2-8.4-7.2-10.8
			l-0.5-0.2l-0.2,0.5c-2.4,8.4,4.5,12.7,6.4,13.7c-1.5,3.3-3.1,6.5-4.8,9.7c0.4-3.3-0.1-8.7-6-11.7l-0.5-0.3l-0.2,0.5
			c-3.3,8.1,3.3,13.2,5,14.3l-0.1,0.1l0.1,0c-1.9,3.5-3.9,6.9-5.8,10.2c0.4-3.3-0.1-8.5-5.9-11.6l-0.5-0.3l-0.2,0.5
			c-3.4,8.1,3,13.2,4.8,14.4c-0.9,1.5-1.8,3-2.7,4.5c-1,1.7-2,3.3-3,5c0.5-3.3,0.1-8.1-5.1-11.4l-0.5-0.3l-0.3,0.5
			c-4,7.8,2.1,13.4,3.7,14.7l-0.1,0.1l0,0c-4.2,7.1-7.7,13.7-9.6,19.2c-8.4,24.1,7.3,79.9,7.4,80.4c0.1,0.2,0.3,0.4,0.5,0.4
			c0,0,0.1,0,0.1,0c0.3-0.1,0.4-0.4,0.3-0.6c-0.2-0.6-15.7-56-7.4-79.8c1.9-5.4,5.4-12,9.6-19.1l0,0l0.1-0.1
			c0.8,0.2,2.4,0.6,4.4,0.6c3.2,0,7.3-1.1,9.9-5.8l0.3-0.5l-0.5-0.2c-5-2.2-9-0.5-11.5,1.5c0.8-1.4,1.6-2.7,2.4-4.1
			c0.9-1.5,1.8-3,2.7-4.5l0.1,0l0.1-0.1c0.6,0.1,1.8,0.4,3.3,0.4c3.3,0,8-1.1,10.6-6.6l0.2-0.5l-0.5-0.2c-4.6-1.6-8.1-0.2-10.5,1.7
			c1.6-2.7,3.1-5.4,4.6-8.2c0.6,0.1,1.7,0.3,3,0.3c3.3,0,8.2-1.1,10.7-6.8l0.2-0.5l-0.5-0.2c-4.7-1.5-8.2-0.1-10.5,1.9
			c1.2-2.4,2.4-4.8,3.6-7.3l0.1,0.1l0-0.1c0.3,0,0.8,0.1,1.5,0.1c3.2,0,9.3-0.9,11.5-7.9l0.2-0.5l-0.5-0.1c-4.8-1.1-8.2,0.8-10.3,3
			c1.3-3.1,2.4-6.2,3.4-9.3l0.1,0l0-0.1c0.1,0,0.2,0,0.3,0c2.4,0,10.1-0.7,12.1-8.9l0.1-0.5l-0.5-0.1
			C425.6,45,422.2,47.8,420.4,50.4z M430.7,28.6c-0.1,7.4-6.6,9.6-8.6,10.1C422.3,36.6,423.4,29.8,430.7,28.6z M416.4,13
			c6,4.3,4.2,10.9,3.4,12.9C418.2,24.5,413.3,19.7,416.4,13z M411.4,29.5c7.4,0.6,9.2,7.2,9.5,9.3C418.8,38.4,412.2,36.7,411.4,29.5
			z M390.9,107.9c-1.7-1.4-6.6-6.1-3.5-12.9C393.5,99.3,391.6,105.9,390.9,107.9z M404.5,104.1c-3.8,6.3-10.6,4.9-12.6,4.3
			C393.1,106.7,397.6,101.5,404.5,104.1z M398.6,94.9c-1.7-1.2-7-5.7-4.5-12.5C400.5,86.1,399.2,92.8,398.6,94.9z M411.8,90.1
			c-3.3,6.6-10.1,5.7-12.2,5.3c0.1-0.1,0.2-0.3,0.2-0.4C401.2,92.8,405.2,88.1,411.8,90.1z M406.1,81.4c-1.7-1.2-7-5.6-4.6-12.5
			C407.9,72.7,406.7,79.4,406.1,81.4z M419.3,76.5c-3.2,6.5-9.8,5.9-12,5.4c0.2-0.5,0.5-0.9,0.7-1.4
			C409.8,78.2,413.5,74.8,419.3,76.5z M412.6,68.9c-1.9-1-7.6-4.7-5.9-11.9C413.5,59.9,412.9,66.8,412.6,68.9z M425.2,62.6
			c-2.6,6.9-9.4,6.9-11.5,6.7C414.6,67.3,417.9,61.3,425.2,62.6z M418.3,54c-2-0.9-8-4.1-6.8-11.4C418.4,45,418.5,51.9,418.3,54z
			 M419.4,54.2c0.8-2,3.7-8.2,11-7.6C428.4,53.8,421.5,54.3,419.4,54.2z"/>
	</g>
	<g>
		<g>
			<g>
				<path class="st1" d="M219.7,78l-1.3,17.8c0,0-4.4,30.7-5,43.3c-0.1,2.4-0.4,5.3-0.9,8.5c-1.6,10.6-4.8,23.7-6,28.2
					c-0.3,1.1-0.4,1.7-0.4,1.7h-4.6l-0.2-1.6v0l-2.4-19.4c0,0,2-27.9,2.6-31.9c0.6-4,1.2-26.6,5.1-35.6
					C207.5,86.9,219.7,78,219.7,78z"/>
				<path class="st3" d="M212.9,120.8l-0.4,26.8c-2,13.1-6.4,29.9-6.4,29.9h-4.6c0,0,2.5-4.8,2.8-7.8c0.3-3,1.9-15.4,1.7-20.1
					c-0.1-4.6,0.3-28.1,0.6-33.1c0.4-5,2.4-20.9,6.2-26.3C216.7,84.8,212.9,120.8,212.9,120.8z"/>
			</g>
			<g>
				<path class="st4" d="M209.4,178.4l-0.8,10l-1,11.9c0,0-2.9,1-3.9,0c-0.4-0.3-1-1.4-1.6-2.6c-0.4-0.8-0.9-1.8-1.2-2.7
					c-0.6-1.5-1-2.9-1-3.7c0-1,0.5-4.8,1-8.2l0,0c0.4-3,0.8-5.5,0.8-5.5l3.1-0.4l4.5,1.3L209.4,178.4z"/>
				<path class="st5" d="M209.2,178.3l-1.3,9c0,0-2.4-7.9-2.9-8.3c-0.5-0.3-3.5-1.5-3.5-1.5l3.1-0.4L209.2,178.3z"/>
				<path class="st5" d="M208.5,188.4l-1,11.9c0,0-2.9,1-3.9,0c-0.4-0.3-1-1.4-1.6-2.6c-0.7-3.3-0.3-5.7,0.1-7
					c0.4-1.3,0.8-5.3,0.8-5.3s0.4,4.7,0.3,5.8c-0.1,1.2,0.2,3.7,0.6,4.2c0.4,0.4,1.4,1.1,1.4,1.1s1.1-0.8,1.4-2.1
					c0.3-1.3,1.6-6.9,1.6-6.9L208.5,188.4z"/>
				<path class="st6" d="M200.3,190.9l0.5,4c-0.6-1.5-1-2.9-1-3.7c0-1,0.5-4.8,1-8.2L200.3,190.9z"/>
				<path class="st7" d="M206.5,175.8c-0.3,1.1-0.4,1.7-0.4,1.7h-4.6l-0.2-1.6v0H206.5z"/>
				<path class="st8" d="M202.3,175.8c-0.5,1-0.8,1.7-0.8,1.7h4.6c0,0,0.2-0.6,0.4-1.7H202.3z"/>
			</g>
		</g>
		<g>
			<path class="st9" d="M234.8,305.9c-0.1,2.2-1.7,2.8-3.8,2.9c-2.2,0.1-10.2,0.5-15.2,0.5c-5,0-19.5-0.4-19.8-0.9
				c-0.2-0.2-0.3-1.4-0.2-2.7c0.1-1.4,0.5-3.1,1.2-3.6c1.4-1,8.6-2.6,10.2-3.5c1.6-1,7.5-8.8,7.6-10.7c0.1-1.9-3.2-35.8-3.2-35.8
				c1.4,0.3,3,0.5,4.5,0.6c8.5,0.7,17.6-0.6,17.6-0.6s-0.1,31.3,0.1,34.3C233.7,289.6,234.9,303.7,234.8,305.9z"/>
			<path class="st10" d="M234.8,305.9c-0.1,2.2-1.7,2.8-3.8,2.9c-2.2,0.1-10.2,0.5-15.2,0.5c-5,0-19.5-0.4-19.8-0.9
				c-0.2-0.2-0.3-1.4-0.2-2.7c1.2-0.1,2.9-0.1,3.9,0c1.7,0.1,8.8,0.3,8.8,0.3s4.8-3.4,6.7-4.1c1.9-0.8,3.2,1.8,5.7,2.5
				c2.5,0.6,5.4-1.9,6.4-3.9c1-1.9-1.7-3.9-2.3-5.2s3.4-3,4-4.1c0.6-1.2,1.5-6.1,1.4-9.4c-0.1-3.4-0.5-23.3-0.5-23.3l-9.7-2.1
				c0,0-2.4-2.2-4.1-3.6c8.5,0.7,17.6-0.6,17.6-0.6s-0.1,31.3,0.1,34.3C233.7,289.6,234.9,303.7,234.8,305.9z"/>
			<g>
				<path class="st1" d="M235.4,248.3c0.1,0.8-1.8,3.9-1.8,3.9l-10.2,3.2l-11.9-3.2c-1.5-2.2-4.2-23.5-4.4-27.4
					c-0.2-3.9,0-44.6,0-44.6h28.3l0,1.4l0.4,23.8C235.8,205.5,235.3,247.5,235.4,248.3z"/>
				<path class="st3" d="M235.4,248.3c0.1,0.8-1.8,3.9-1.8,3.9l-10.2,3.2c0,0,0-2.5,1-3.2c1-0.7,1.7-1.1,2.9-2.3
					c1.2-1.2,3.6-9.6,3.6-9.6l-1-20.1l-1.2-23.8l-1.4-6.9c0,0-14.4-3.6-20.3-9.3l8.3,0.8c0,0,9.8,2.6,12.8,2.1
					c2.1-0.4,5.6-1.1,7.3-1.5l0.4,23.8C235.8,205.5,235.3,247.5,235.4,248.3z"/>
			</g>
		</g>
		<g>
			<path class="st1" d="M219.7,78c0,0,3.1-23.3,4-26.9c1-3.6,2.9-10,5.5-11.9c2.9-2.2,12.8-2.8,16.7-0.5c3.4,2,5.4,11.2,6.3,20.2
				c1,8.9,2.4,18.1,2.4,18.1s-11.2,6.3-20.9,6.2C224.1,83.1,219.7,78,219.7,78z"/>
			<g>
				<defs>
					<path id="SVGID_1_" d="M228,59.3c0,0,0.9,7.2,1.1,8.2c0.2,1,4.1,5.7,6.1,6.6c2,0.9,5,0.9,7.1-0.7c2-1.6,4.1-2.8,5.3-6.2
						c1.2-3.4,0.7-11.7,0.4-14.4c-0.3-2.6-1.9-6-1.9-6s-15.4,0.1-16.7,0.7C228.1,48.1,227.6,54.6,228,59.3z"/>
				</defs>
				<clipPath id="SVGID_2_">
					<use xlink:href="#SVGID_1_"  style="overflow:visible;"/>
				</clipPath>
				<g class="st11">
					<path class="st12" d="M227.4,56.3c0,0,0.4,10.5,1.7,12c1.3,1.5,5,7,8.3,7.3c3.3,0.3,8.4-3.6,9.9-6.5c1.5-3,2.3-10.5,1.9-13.5
						c-0.4-3.1-2.2-9.4-2.2-9.4s-17.5-1.3-18.3,1.7C227.7,50.9,227.4,56.3,227.4,56.3z"/>
					<g>
						<path class="st4" d="M248.9,61.9l0,0.3l-0.6,7.5l-6.6,6.8l0,0l-0.4,0.4l-0.4-0.1l-3.7-0.6l-4.6-0.8c0,0-3.3-1.9-4.2-5
							s-1.2-7.8-1.2-7.8s0.2,0,0.6,0c1.4,0.1,4.7,0.1,6-0.7c0.4-0.2,0.8-0.4,1.3-0.6c0.7-0.2,1.4-0.4,2.1-0.5
							c0.9-0.1,1.8-0.1,2.3,0.2c1.2,0.6,4.5,1.5,4.5,1.5l4.8-0.8L248.9,61.9z"/>
						<g>
							<path class="st5" d="M248.9,62.2l-0.6,7.5l-6.6,6.8l0,0c-0.3,0.2-0.6,0.3-0.8,0.4l-3.7-0.6c-0.1-0.3-0.1-0.6,0.2-0.8
								c1.1-0.6,3.8-1.5,5.3-3.1c1.5-1.6,2.4-3.2,2.4-3.2s1.3-3.2,1.1-4.3c-0.2-1.1-1.9-0.9-1.9-0.9s-2.1,0-2.5,0.4
								c-0.4,0.4-1.5,1.7-1.7,1.4c-0.2-0.3,0-1.2-0.4-2c-0.4-0.8,0.2-0.3-0.5-1.1c-0.7-0.8-2.4-1.3-2.4-1.3l0.4-0.4
								c0.9-0.1,1.8-0.1,2.3,0.2c1.2,0.6,4.5,1.5,4.5,1.5l4.8-0.8L248.9,62.2z"/>
							<path class="st5" d="M230,64.6c-0.1,0.8-0.2,1.9-0.2,2.5c0,1.1,0.3,3.8,0.3,3.8v0.8l-2.1-4.8l-0.1-2.2h-0.1l-0.1-1.9
								c1.4,0.1,4.7,0.1,6-0.7c0.4-0.2,0.8-0.4,1.3-0.6l0.2,0l-3,2.9L230,64.6z"/>
						</g>
						<path class="st6" d="M234.7,65.7c0.2-0.2,1.1-0.8,1.1-0.8h0.5l-1,0.8c0,0-0.6,0.2-0.8,0.6C234.2,66.6,234.1,66.2,234.7,65.7z"
							/>
						<path class="st6" d="M234.5,64.6c0.1,0.1,1.2-0.5,1.2-0.5s0.5,0,0.6-0.1c0.1-0.2,0-0.6-0.6-0.3
							C235.1,63.9,234.4,64.2,234.5,64.6z"/>
					</g>
					<g>
						<path class="st7" d="M227.4,51.3c0,0,4.2-1.7,7.1-2.3c2.8-0.6,10.8-0.2,13.8,1.4c3.1,1.6,1.2-7.7-1.7-8.6
							c-2.9-0.9-10.6-1.2-10.6-1.2s-5.8,1.7-7.1,3.6c-1.3,1.9-2.4,4.2-2.4,4.2L227.4,51.3z"/>
						<path class="st8" d="M227.6,50.6c0.2-0.1,2.6-1.5,4.2-2.1c1.5-0.6,5.6-0.9,5.6-0.9l4.9,0.2l3.1,1.1l2.9,0.9v-4.3l-6.6-3.3
							l-8.5,1.2l-4.7,2.7l-1.7,2.2L227.6,50.6z"/>
					</g>
				</g>
			</g>
			<path class="st7" d="M252.4,59.7l-5.1,0.2l-0.1-3.6l4.9-0.2c0.4,0,0.6,0.3,0.7,0.6L253,59C253,59.4,252.7,59.7,252.4,59.7z"/>
			<path class="st8" d="M250.1,56.1l-3,0.1l0.1,3.6l3.4-0.1C250.5,58.9,250.3,57.3,250.1,56.1z"/>
			<path class="st7" d="M222.2,60.3l5.1,0.2l0.1-3.6l-4.9-0.2c-0.4,0-0.6,0.3-0.7,0.6l-0.2,2.3C221.5,60,221.8,60.3,222.2,60.3z"/>
			<path class="st13" d="M248.3,62.3c-0.2,0.3-3.8,0.9-6,0.9c-0.6,0-1.1,0-1.4-0.2c-0.3-0.1-0.6-0.2-0.9-0.4
				c-0.4-0.2-0.8-0.4-1.1-0.6c-0.7-0.3-1.4-0.6-2-0.6h-0.1c-0.2,0-0.5,0-0.7,0.1c-0.9,0.3-1.6,0.8-2.4,1.3c-0.6,0.3-1.3,0.7-2.1,0.8
				c-0.5,0.1-1.1,0.1-1.7,0.1c-1.7,0-3.4-0.2-3.6-0.6l-0.1-0.8c0,0-0.8-7.8,0-8.7c0.7-0.7,6.8-1.4,11.3-1.5c0.2,0,0.5,0,0.7,0
				c0.7,0,1.4,0,1.9,0.1c0.1,0,0.3,0,0.4,0c0.6,0.1,1.2,0.1,1.8,0.2c0.4,0.1,0.9,0.1,1.3,0.2c2.9,0.5,5.3,1.1,5.4,1.3
				C249,54.3,248.6,62,248.3,62.3z"/>
			<path class="st1" d="M240,52.2l-3.2,9.3h-0.1c-0.2,0-0.5,0-0.7,0.1c-0.9,0.3-1.6,0.8-2.4,1.3l3.7-10.7c0.2,0,0.5,0,0.7,0
				C238.8,52.1,239.5,52.1,240,52.2z"/>
			<path class="st1" d="M243.5,52.6l-3.5,10.1c-0.4-0.2-0.8-0.4-1.1-0.6l3.3-9.7C242.7,52.5,243.1,52.5,243.5,52.6z"/>
			<path class="st7" d="M238.1,53.1L238.1,53.1c0.9,0,1.6,0,2.2,0.1c3.2,0.3,6.4,1,7.6,1.4c0,1.5-0.3,5.7-0.5,7
				c-0.9,0.2-3.4,0.7-5.1,0.7c-0.7,0-1-0.1-1.1-0.1c-0.4-0.1-0.8-0.4-1.2-0.6c-1-0.5-2.1-1.1-3.3-1.1c-0.3,0-0.7,0-1,0.1
				c-0.8,0.2-1.4,0.6-2,1c-0.7,0.5-1.3,0.9-2.3,1c-0.5,0.1-1,0.1-1.6,0.1c-1.3,0-2.2-0.1-2.7-0.2l0-0.2c-0.3-3.2-0.5-7-0.2-7.9
				C228,53.8,233.6,53.1,238.1,53.1L238.1,53.1z M238.1,52.1c-4.5,0-11.3,0.7-12,1.5c-0.8,0.9,0,8.7,0,8.7l0.1,0.8
				c0.2,0.3,1.9,0.6,3.6,0.6c0.6,0,1.2,0,1.7-0.1c2-0.3,2.8-1.5,4.5-2c0.2-0.1,0.4-0.1,0.7-0.1c1.4,0,2.9,1.2,4.2,1.6
				c0.3,0.1,0.8,0.2,1.4,0.2c2.2,0,5.7-0.6,6-0.9c0.3-0.3,0.7-8.1,0.6-8.4c-0.1-0.3-4.5-1.4-8.5-1.7C239.8,52.1,239,52.1,238.1,52.1
				L238.1,52.1z"/>
			<path class="st14" d="M219.7,78c0,0,5.9,5.4,15.4,4.8c9.4-0.6,19.6-5.8,19.6-5.8s-8.4,7-19.9,7C223.3,84,219.7,78,219.7,78z"/>
		</g>
		<g>
			<path class="st1" d="M267.2,178.5c0,0-1.7,4.1-3.1,4.2c-1.3,0.1-12.1,2.4-16.9,1.6c-4.8-0.8-15.6,0-15.6,0s-0.3,0-0.8,0
				c-0.1,0-0.3,0-0.5,0c-1.6,0-4.6,0-7.3,0c-1.3,0-3.5-0.5-5.9-1.1c-4.7-1.2-10.1-2.9-10.1-2.9c-1.8-2.1-2.6-3.7-2.7-3.8
				c0,0,0,0,0,0s1.3-9.8,2.3-13.5c1-3.7,2.3-27,2.1-35.1c-0.2-8.1,0.2-19.5,2.7-32c2.5-12.5,8.3-17.8,8.3-17.8l34.9-1l5.8,3
				c0,0,0.8,11.8,1.3,21.4c0.2,4.2,0.4,8,0.4,10.2c0,7.3-0.8,41.7,1.3,49.6C265.6,169,267.2,178.5,267.2,178.5z"/>
			<path class="st3" d="M263.5,161.1c-2.1-7.9-1.3-42.3-1.3-49.6c0-2.2-0.2-6-0.4-10.2c-2.4-6.8-4.4-12-4.4-12
				c-2.3,3.9-2.8,16.6-2.8,16.6s0.8,13.4,1.2,21.8c0.4,8.4-1.2,29.7-1.2,29.7s-2.3,10.2-2.4,13.2c-0.1,2.9,2.4,8.5,2.4,8.5
				s-3.5,1.8-5.6,1.6c-0.8-0.1-2.1,0.1-3.6,0.4l0,0c0,0-11.8,0.8-14.5,0.4c-2.7-0.4-9.3-0.9-9.6-0.7c0,0,3.4,0.7,4.3,1.3
				c0.9,0.5,9.5,1.2,11.3,1.3c-2.3,0.6-5.4,1.1-5.4,1.1s10.8-0.8,15.6,0c4.8,0.8,15.6-1.5,16.9-1.6c1.3-0.1,3.1-4.2,3.1-4.2
				S265.6,169,263.5,161.1z"/>
			<path class="st3" d="M227.3,182.7c0,0-7.8,0.3-10.2,0.5c-4.7-1.2-10.1-2.9-10.1-2.9c-1.8-2.1-2.6-3.7-2.7-3.8
				c0.3,0.1,4.8,2.1,6.3,2.6c1.5,0.5,5.4,2.1,5.4,2.1l6,1.1L227.3,182.7z"/>
			<path class="st14" d="M230,172c-0.5,2.9-0.9,5.5-0.7,6.3c0.5,1.7,1.2,4.9,1.4,5.9c-0.1,0-0.3,0-0.5,0c-0.3-1.1-1-4.1-1.4-5.8
				c-0.3-1,0.1-3.4,0.7-6.5c0.7-4,1.5-8.9,1.3-12.9c-0.2-4.2-0.6-17.8-0.9-28.8c-0.2-7.4-0.4-13.8-0.5-15.4
				c-0.2-3.8,3.9-30.5,4.1-31.7l0.5,0.1c0,0.3-4.3,27.8-4.1,31.6c0.1,1.6,0.2,8,0.5,15.4c0.3,10.9,0.7,24.5,0.9,28.8
				C231.5,163,230.7,168,230,172z"/>
		</g>
		<g>
			<g>
				<path class="st1" d="M265.5,180.3c0,0-1.8,25.9-2.3,32.1c-0.5,6.1-2.8,37.3-2.9,38c-0.1,0.8-1.3,2.9-1.3,2.9s-10.8-0.1-14.1,0
					c-2.2,0.1-5.1-0.7-6.9-1.3c-0.9-0.3-1.4-0.5-1.4-0.5s-2-3.3-2-3.7c0-0.4-3.7-67.5-3.7-67.5H265.5z"/>
				<path class="st3" d="M265.5,180.3c0,0-1.8,25.9-2.3,32.1c-0.5,6.1-2.8,37.3-2.9,38c-0.1,0.8-1.3,2.9-1.3,2.9s-10.8-0.1-14.1,0
					c-2.2,0.1-5.1-0.7-6.9-1.3l-1.5-2.7c0,0,3.7,1.3,5.9,1.6c2.2,0.3,6.3-0.7,7.7-0.8c1.4-0.1,3.8-1.4,3.8-1.4s4.7-20.2,5.4-27.7
					c0.6-7.4,1.7-24.6,1.7-24.6l-2.8-9c0,0-20.2,0.3-26.6-3.2c0,0,12-3.4,16.6-3.2c1.9,0.1,5.5-0.3,9.1-0.8H265.5z"/>
			</g>
			<g>
				<path class="st9" d="M260.4,300.7c0,0-1.3,8.1-1.8,8.3c-0.5,0.1-4,0.3-9.1,0.6c-4.5,0.3-9.4-0.4-10.8-1.3l0,0
					c-0.2-0.1-0.3-0.3-0.4-0.4c-0.3-1-0.8-7.7-0.8-7.7s1.9-7.7,1.9-8.5c0-0.8,0-10.4-0.3-12.6c-0.3-2.2-2.5-27.6-2.5-27.6l22.4,1.8
					c0,0-1.6,18.3-1.7,20.9c-0.1,2.6,0.1,13.7,0.3,15.6S260.4,300.7,260.4,300.7z"/>
				<path class="st10" d="M260.4,300.7c0,0-1.3,8.1-1.8,8.3c-0.5,0.1-4,0.3-9.1,0.6c-4.5,0.3-9.4-0.4-10.8-1.3l0,0l-0.4-0.4
					c0,0,8,0.8,10.8-0.1c2.8-0.9,6.2-5,6.2-5l-1.2-9l-4.9-3.9l3.2-1.5l0.8-30c0,0-2.4-1.8-7.3-2.8c-4.9-1-9.2-4-9.2-4l22.4,1.8
					c0,0-1.6,18.3-1.7,20.9c-0.1,2.6,0.1,13.7,0.3,15.6S260.4,300.7,260.4,300.7z"/>
			</g>
		</g>
		<g>
			<path class="st1" d="M277.2,164.7c-0.4,9.8-1.5,11.7-1.5,11.7l-2.1,2.1c0,0-5,0.5-9.7-0.2c-1.3-0.2-2.5-0.4-3.6-0.8
				c0,0-1.8-1-2-1.7c-0.3-0.6-0.4-23.1,0.1-31.4c0.5-8.2-1.4-40.3-1.4-46.1c0-5.8,0.5-14.8,3.5-18.4c0,0,7.6,8.8,9.5,12.7
				c0.4,0.8,0.8,2.1,1.2,3.7c1.6,6.1,3.1,16.5,3.3,19C274.7,118.7,277.6,155,277.2,164.7z"/>
			<path class="st3" d="M277.2,164.7c-0.4,9.8-1.5,11.7-1.5,11.7l-2.1,2.1c0,0-5,0.5-9.7-0.2c0.8-0.2,1.8-0.4,1.6-0.8
				c-0.2-0.7,0.8-0.8,0.8-0.8s4.8-0.3,5.9-2c1.1-1.7,2.4-8.2,3.2-10.9c0.8-2.7-0.4-14.8-0.4-14.8s-1.7-35-2.4-39.2
				c-0.5-2.9-1-9.4-1.3-13.3c1.6,6.1,3.1,16.5,3.3,19C274.7,118.7,277.6,155,277.2,164.7z"/>
			<path class="st3" d="M264.7,122.2c0.8,6.8,3.1,13.5,6.6,19.4c1,1.7,2.1,3.3,3.3,4.9c0.2,0.3,1.3,1.4,2.2,2.4
				c-0.8-14-2.1-31.2-2.3-33.4c0-0.5-0.1-1.4-0.3-2.5c-2.3,0.9-4.6,1.8-6.8,2.7C263.9,117.1,264.3,118.7,264.7,122.2z"/>
		</g>
		<g>
			<path class="st4" d="M274.5,189.6c-0.1,0.9-1.2,8.5-1.6,10.2c-0.4,1.7-2.7,4.8-2.7,4.8s-2.3,0.5-4,0.7c-0.6,0.1-1.2,0.1-1.5,0
				c-1-0.3-2.8-1.5-2.8-1.5l0.9-3.6v0l0.2-0.8l0.7-2.7c0,0,0.5-9.4,0.5-10.4c0-0.8-0.6-4.4-0.9-6.2c-0.1-0.4-0.1-0.6-0.1-0.8
				c0-0.1,0-0.1,0-0.1l0.7,0.1l1.8,0.2l7.8,0.9C273.5,180.4,274.6,188.7,274.5,189.6z"/>
			<path class="st6" d="M264.8,205.4c-1-0.3-2.8-1.5-2.8-1.5l0.9-3.6v3.3C262.9,203.7,263.7,204.9,264.8,205.4z"/>
			<path class="st5" d="M263.3,199.5c0,0,1.3,0.7,2.6,0.3c1.4-0.5,1.6-2.7,1.5-5c-0.1-2.3-1.2-8.1-1.2-8.1L263.3,199.5z"/>
			<path class="st4" d="M266.4,194.8c-0.2,1.9-1.6,4.7-2.6,4.8c-0.3,0-0.5-0.1-0.7-0.2c-0.2-0.2-0.5-0.4-0.7-0.7v0
				c-0.2-0.4-0.4-0.8-0.6-1.1c-0.4-0.7-1.1-7.1-1.1-8c0-0.7-0.1-6.1-0.2-8.6c0,0,0-0.1,0-0.1c0-0.8,0-1.3,0-1.3l2.7-0.3l0.6-0.1
				l1.7-0.2l0.1,0.4l0.2,1.3l0.6,4.8C266.5,185.7,266.6,192.9,266.4,194.8z"/>
			<path class="st5" d="M274.5,189.6c-0.1,0.9-1.2,8.5-1.6,10.2c-0.4,1.7-2.7,4.8-2.7,4.8s-2.3,0.5-4,0.7c0.6-0.6,1.4-1.6,2-3
				c0.9-2.1,1.6-4.7,1.7-5.1l-0.9,5.6c0,0,2.7-3.1,2.8-5.7c0.1-2.6,0.4-12.1,0.4-12.1l-0.5-2.1c0,0-2.8-1.2-6-2.2
				c-0.8-0.3-1.7-0.5-2.5-0.7c-1-0.2-1.9-0.4-2.8-0.5l2.7-0.3c0-0.1,0-0.1,0-0.1l0.7,0.1l1.7-0.2l0.1,0.4l7.8,0.9
				C273.5,180.4,274.6,188.7,274.5,189.6z"/>
			<path class="st6" d="M262.5,198.7c-0.2-0.4-0.4-0.8-0.6-1.1c-0.4-0.7-1.1-7.1-1.1-8c0-0.7-0.1-6.1-0.2-8.6
				c0.1,0.8,0.8,6.9,0.8,8.9C261.4,192,262.3,197.6,262.5,198.7z"/>
			<path class="st8" d="M273.6,178.5l-0.1,2c-0.4,0.1-0.9,0.1-1.3,0.1c-2,0-4.1-0.2-6.1-0.3c-1.1-0.1-2.1-0.2-3.2-0.3
				c-0.5,0-0.9-0.1-1.4-0.1c-0.4,0-1,0-1.3-0.2c-0.1-0.1-0.2-0.2-0.3-0.4c-0.4-0.7-0.5-1.5-0.5-2.2c1.6,0.4,3.4,0.5,5.1,0.7
				C267.5,177.9,270.5,178.2,273.6,178.5z"/>
		</g>
	</g>
	<g>
		<g>
			<path class="st8" d="M404.4,140.1c0,0,11-3.9,9.9-18.7l-9.3,3.2C405,124.6,400.2,131.7,404.4,140.1z"/>
			<g>
				<path class="st1" d="M435.5,111.2c-1.5,2.9-3.6,6.9-5.7,11c-4.3,8.2-8.9,16.8-10.5,17.9c-0.6,0.4-1.5,0.9-2.5,1.3
					c-1.5,0.6-3.2,1.1-4.2,1.1c-1.5,0-9.3-8.5-9.3-8.5l11.1-12.5c0,0,11.3-9.1,16.1-15.5C430.9,107.3,432.1,109.8,435.5,111.2z"/>
				<path class="st3" d="M419.2,137.7c-0.5,0.7-1.3,1.6-2.4,2.5c-1.5,0.6-3.2,2.2-4.3,2.2c-1.6,0-9.3-8.5-9.3-8.5l11-12.6
					c0,0,0,0.1-0.1,0.3c0,0,0,0,0,0c-0.9,1.6-5.8,9.8-5.7,12.2c0.1,2.6,2.2,4.8,3.6,5.7C414.1,140.8,417.1,139.3,419.2,137.7z"/>
				<path class="st3" d="M450.4,97.7c-0.7,0.5-11.2,8-12.5,9.3c-0.6,0.7-4.2,7.8-8.1,15.2l6.2-16.8L450.4,97.7z"/>
			</g>
			<g>
				<path class="st4" d="M450.4,97.7L450.4,97.7c-0.7,0.5-11.3,8-12.6,9.3c0,0-0.1,0.1-0.1,0.2c0,0-0.1,0.1-0.1,0.1
					c-0.2,0.3-0.4,0.7-0.7,1.3c-0.1,0.1-0.1,0.2-0.2,0.3c-0.1,0.1-0.1,0.2-0.2,0.3c-0.1,0.1-0.1,0.2-0.2,0.3c0,0-0.1,0.1-0.1,0.1
					c-0.1,0.2-0.2,0.4-0.3,0.6c-0.2,0.3-0.3,0.6-0.5,0.9c-0.5-0.2-1-0.4-1.4-0.7c-2.3-1.4-3.3-3.4-3.7-4.6c0.1-0.1,0.2-0.3,0.3-0.4
					c0.2-0.3,0.4-0.6,0.6-0.9c0,0,0.4-13.2-0.2-15.3c-0.6-2.1,1.3-0.4,2.1,0.2c0.8,0.6,1.2,4.3,1.6,5.2c0.4,1,2.5,0.4,2.9-0.4
					c0.4-0.8,5-6.2,5-6.2s4.1,0.8,5.2,1.8C449.1,90.9,450.4,97.7,450.4,97.7z"/>
				<path class="st5" d="M450.4,97.7c-0.7,0.5-11.2,7.9-12.5,9.3c0,0-0.1,0.1-0.1,0.2c0,0-0.1,0.1-0.1,0.1c-0.2,0.3-0.4,0.7-0.7,1.3
					c-0.1,0.1-0.1,0.2-0.2,0.3c-0.1,0.1-0.1,0.2-0.2,0.3c-0.1,0.1-0.1,0.2-0.2,0.3c0,0-0.1,0.1-0.1,0.1c-0.1,0.2-0.2,0.4-0.3,0.6
					c-0.2,0.3-0.3,0.6-0.5,0.9c-0.5-0.2-1-0.4-1.4-0.7l1.9-5.1L450.4,97.7z"/>
			</g>
		</g>
		<g>
			<path class="st15" d="M383.3,299.2c0,0-1.3,4.8-1.4,5.5c-0.1,0.8,0.1,4.5,0.1,4.5s8.6,1.2,16,1.4c7.4,0.3,17.5-0.1,18.3-0.3
				c0.8-0.1-1-7.1-2.5-8.3c-1.4-1.2-9-1.3-11-1.5c-1.9-0.3-3.9-1.5-3.9-1.5L383.3,299.2z"/>
			<g>
				<path class="st7" d="M400.5,299.4c0,0-11,1.7-19.4,0.4c0,0-1-43.2-1.6-49.5c-0.1-0.9-0.3-2.7-0.6-5.3c0,0,0,0,0,0
					c-2-15.4-7.7-55.5-7.7-55.5l26.3,1.7c0,0,0.1,0.9,0.1,2.5c0.4,8.3,1.6,34.7,1.2,42C398.6,244.4,400.5,299.4,400.5,299.4z"/>
				<path class="st8" d="M379.2,235.1c0.2,0.8,0,5-0.3,9.8c-2-15.4-7.7-55.5-7.7-55.5l26.3,1.7c0,0,0.1,0.9,0.1,2.5l-19.7,2.1
					C378.1,195.8,378.8,233.2,379.2,235.1z"/>
			</g>
		</g>
		<g>
			<path class="st15" d="M348.6,297.1c0,0.4-2.1,3.9-2.3,5.9c-0.3,2.1-0.3,6.8-0.3,6.8s7.7,1.4,10.6,1.2c2.8-0.3,9-0.1,9-0.1
				s0.4-11.4-1-12.9S348.6,297.1,348.6,297.1z"/>
			<g>
				<path class="st7" d="M377.1,189.8c-0.4,0.8-3.7,42.8-4.7,47.6c-1,4.8-6.6,61.2-6.6,61.2s-12.2,0.2-18.8-0.8c0,0,1.1-37,1.6-57.4
					c0,0,0,0,0,0c0.2-7.1,0.3-12.2,0.3-13c0-3.3-1-40.6-1-40.6l26.6,2.8L377.1,189.8z"/>
				<path class="st8" d="M375.9,191.4c0,0.6-0.6,3.7-1,4.3c-0.4,0.6-21.3,1.8-21.3,1.8s-0.8,24-0.8,25.4c0,0.8-2.4,10.3-4.2,17.7
					c0.2-7.1,0.3-12.2,0.3-13c0-3.3-1-40.6-1-40.6l26.6,2.8L375.9,191.4z"/>
			</g>
		</g>
		<g>
			<path class="st7" d="M414.3,121.4c0,0-5.8,6.3-8.6,13.4c-0.7,1.7-1.2,3.5-1.3,5.3c0,0-10.8-15.8-14.7-30.5c0-0.1-0.1-0.2-0.1-0.3
				c-3.7-14.5,0.8-21.7,0.8-21.7s10.2,14.7,12.1,16.9C404.5,106.7,414.3,121.4,414.3,121.4z"/>
			<path class="st8" d="M405.7,134.8c-0.7,1.7-1.2,3.5-1.3,5.3c0,0-10.8-15.8-14.7-30.5c0-0.1-0.1-0.2-0.1-0.3l4.7-12.1l5.8,16.5
				L405.7,134.8z"/>
		</g>
		<g>
			<path class="st7" d="M399.6,192.9c0,0-6.7,1.2-20.5,0.4c-13.8-0.8-33.4-4.4-33.4-4.4s0.1-0.5,0.2-1.3c0.7-4.9,3.1-22,3.2-23.2
				c0.1-1.4,3.6-37,3.1-42.1c-0.3-2.7-2.1-10.5-3.5-17.6c-1.3-6.3-2.2-12-1.6-12.7c1.4-1.4,14.6-7,14.6-7l19.8-0.1
				c0,0,8.1,1.6,9,2.7c0.9,1.2,6.2,15.2,6.3,19.1c0.1,3.9,0.4,39.7,0.9,49.9C398.2,166.8,399.6,192.9,399.6,192.9z"/>
			<path class="st8" d="M354.8,157.1l0.4,30.6l-9.4-0.1c0.7-4.9,3.1-22,3.2-23.2c0.1-1.4,3.6-37,3.1-42.1
				c-0.3-2.7-2.1-10.5-3.5-17.6l3.5-1.9c0,0,2.4,8.5,3.2,18C356.2,130.2,354.8,157.1,354.8,157.1z"/>
			<rect x="387.1" y="107.8" class="st1" width="4.9" height="1.8"/>
		</g>
		<g>
			<g>
				<path class="st1" d="M349.9,139.2l-0.1,4l-0.2,6.4l-0.6,33.6c-2.8,0.3-5.8,0.2-7.9,0c-0.6-7.4-2.3-27.1-2.5-29.9
					c-0.2-2.4,0.2-6.1,0.4-8.2c0.1-1,0.2-1.6,0.2-1.6v-7.7L349.9,139.2z"/>
				<path class="st3" d="M349.9,139.2l-0.1,4c-2.4,0.8-6.6,2-10.7,1.9c0.1-1,0.2-1.7,0.2-1.7v-7.7L349.9,139.2z"/>
			</g>
			<g>
				<path class="st4" d="M351.9,205.1l-4.3,2.2c0,0-0.6-0.1-1.3-0.4c-1.3-0.4-3.2-1-3.6-1.6c-0.6-0.9-2.6-13-2.6-13s1.3-5.7,1.3-6.3
					c0-0.1-0.1-1.2-0.2-2.8c0.1,0,0.3,0,0.4,0c2,0.1,4.8,0.3,7.5,0l0,1.7l1.5,4.7c0,0.1,0.1,0.2,0.1,0.3c0,0.1,0,0.1,0,0.2l0.6,1.8
					L351.9,205.1z"/>
				<path class="st5" d="M350.5,198.1l-0.5-4.3l-1.9-5.3l-1.6-2.9l-0.3-1.7c-2.1-0.1-3.7-0.4-4.6-0.6c2,0.1,4.8,0.3,7.5,0l0,1.7
					l1.5,4.7c0,0.1,0.1,0.2,0.1,0.3c0,0.1,0,0.1,0,0.2C351,191.8,350.5,198.1,350.5,198.1z"/>
				<path class="st5" d="M347.6,207.3c0,0-0.6-0.1-1.3-0.4l0.5-3.6L347.6,207.3z"/>
			</g>
		</g>
		<path class="st7" d="M347.1,92c0,0-2.4,3.5-4.3,9.8c-2.1,6.8-6.1,19.1-7.2,37c0,0,10.7,2.3,17,2.3c0,0,1.3-14.7,0.8-26.8
			C352.9,102.1,350.7,93.8,347.1,92z"/>
		<g>
			<circle class="st16" cx="374.6" cy="122.9" r="1.4"/>
			<g>
				<g>
					<path class="st16" d="M365.7,107.7l-1,0.3c-1-3.7-5.6-22.3-2.5-24.4c0.7-0.5,1.7-0.9,2.9-1.4c-0.1,0.4-0.3,0.8-0.4,1.2
						c-0.8,0.3-1.5,0.7-2,1c-0.1,0.1-0.2,0.2-0.2,0.3c-0.1,0.2-0.3,0.6-0.3,1C361.6,89.5,363.7,100.1,365.7,107.7z"/>
					<path class="st16" d="M387.5,99.6l-1,0.1c0-0.1-1.2-10.2-5.1-14.7c-0.1-0.1-0.1-0.1-0.2-0.2c-0.5-0.6-1.1-1.1-1.8-1.4
						c-0.3-0.1-0.5-0.3-0.8-0.4l0.1-1c0.4,0.1,0.8,0.3,1.1,0.5C385.9,85.5,387.5,99,387.5,99.6z"/>
				</g>
				<g>
					<path class="st16" d="M363.4,123.6c-0.2-0.5-4.5-13.2,0.5-16c1.1-0.6,2.3-0.7,3.4-0.2c3.6,1.6,6.3,8.9,7.6,14.6l-1,0.2
						c-1.3-5.9-4-12.6-7-13.9c-0.8-0.4-1.7-0.3-2.5,0.1c-3.6,2-1.3,11.4-0.1,14.8L363.4,123.6z"/>
				</g>
				<circle class="st16" cx="387.5" cy="101.8" r="2.6"/>
				<circle class="st1" cx="387.5" cy="101.8" r="1.5"/>
				<circle class="st16" cx="364.1" cy="124.1" r="1.4"/>
				<g>
					<path class="st16" d="M364.3,105c-0.5,0-0.9-0.3-1-0.8c-0.4-2-1.2-5.6-1.2-5.6l2-0.4c0,0,0.8,3.6,1.2,5.6
						c0.1,0.5-0.2,1.1-0.8,1.2C364.4,105,364.3,105,364.3,105z"/>
				</g>
			</g>
		</g>
		<g>
			<path class="st17" d="M381.4,85c0,4.3-6.3,13-6.3,13c-5.2-2.1-11.1-9.8-12.9-12.3c0.1-0.4,0.2-0.8,0.3-1l1.9-0.4
				c0.1-0.3,0.2-0.5,0.3-0.8c0.2-0.4,0.3-0.8,0.4-1.2c0.1-0.2,0.1-0.5,0.2-0.7c0.2-0.6,0.3-1.1,0.4-1.6c0.3-1.6,0.5-2.8,0.5-2.8
				h13.1l-0.4,3.8c0,0,0,0,0,0l-0.1,1.1l-0.1,1l-0.1,1.1l2.7,0.7C381.3,84.9,381.4,84.9,381.4,85z"/>
			<path class="st18" d="M379.3,77.1l-0.4,3.8c0,0,0,0,0,0c-1.8,2.3-4.8,5.2-6.8,4.4c-1.8-0.7-4.5-3.4-6.3-5.4
				c0.3-1.6,0.5-2.8,0.5-2.8H379.3z"/>
			<path class="st9" d="M385.5,57.9c0,0,0.3,5.1,0,6c-0.3,0.9-0.5,4.9-1.4,5.1s-1.2-10.3-1-11.5c0.1-1.2,2.2-0.8,2.2-0.8L385.5,57.9
				z"/>
			<path class="st17" d="M384.2,60.3c0,0.4-0.1,9.7-0.1,11.1c0,1.4-4.6,7.7-6.8,9.5c-2.2,1.8-3.2,1.8-4.4,2.1
				c-1.2,0.3-8.4-5.2-9.5-7c-1.2-1.8-2.1-10.7-1.5-15.2c0.5-4.5,2.3-8.4,7.1-9.5c4.8-1.2,7.5-2.1,10.8-0.8
				C383.1,51.8,384.5,56.3,384.2,60.3z"/>
			<path class="st12" d="M373.5,63.6c-0.2-0.1-0.5-0.3-0.7-0.4c-0.5-0.2-1-0.3-1.5-0.3c-0.5,0-0.9,0.2-1.3,0.5
				c-0.2,0.1-0.3,0.3-0.5,0.4c-0.2,0.2-0.2,0.4-0.4,0.6c-0.3,0.4,0.5,0.8,0.6,0.3c0-0.1,0.2-0.3,0.3-0.4c0.1-0.1,0.3-0.2,0.4-0.3
				c0.3-0.2,0.7-0.3,1-0.3c0.4,0,0.7,0.1,1,0.3c0.2,0.1,0.4,0.3,0.5,0.4c0.2,0.2,0.4,0.4,0.7,0.4c0.3,0,0.6-0.3,0.5-0.6
				C374.1,63.9,373.8,63.8,373.5,63.6z"/>
			<path class="st12" d="M381.4,64.8c-0.1-0.1-0.3-0.3-0.4-0.4c-0.3-0.2-0.7-0.4-1.1-0.4c-0.4-0.1-0.7-0.1-1.1,0
				c-0.4,0.1-1,0.2-1.1,0.6c-0.1,0.2,0,0.5,0.3,0.5c0.2,0,0.4,0,0.6-0.1c0.1,0,0.1-0.1,0.2-0.1c0,0,0.1,0,0.1,0c-0.1,0,0.1,0,0.1,0
				c0.3-0.1,0.5-0.1,0.8,0c0.3,0,0.5,0.1,0.8,0.3c0.1,0.1,0.2,0.1,0.4,0.2c0.1,0.1,0.2,0.2,0.4,0.3c0.2,0.1,0.5-0.1,0.4-0.3
				C381.7,65.1,381.6,64.9,381.4,64.8z"/>
			<g>
				<path class="st9" d="M380.1,68.2C380.1,68.2,380.1,68.2,380.1,68.2C380.1,68.2,380.1,68.2,380.1,68.2
					C380.1,68.2,380.1,68.2,380.1,68.2C380.1,68.2,380.1,68.2,380.1,68.2z"/>
				<path class="st9" d="M380.3,67.7c0-0.2,0-0.3-0.1-0.4c-0.1-0.1-0.2-0.2-0.3-0.3c-0.3-0.2-0.6-0.2-0.9,0
					c-0.1,0.1-0.2,0.2-0.3,0.3c-0.1,0.1-0.1,0.3-0.1,0.4c0,0.2,0,0.3,0.1,0.5c0,0,0,0,0,0l0,0l0.1,0.2c0,0,0,0,0,0
					c0.1,0,0.1,0.1,0.2,0.1c0,0,0,0,0,0c0.1,0,0.1,0.1,0.2,0.1c0.1,0,0.3,0,0.4,0c0.2-0.1,0.2-0.1,0.4-0.2c0,0,0,0,0,0
					c0,0,0-0.1,0.1-0.1c0,0,0-0.1,0.1-0.1c0,0,0,0,0,0c0,0,0,0,0,0c0,0,0,0,0,0c0,0,0,0,0,0c0,0,0,0,0,0c0,0,0,0,0,0
					C380.3,68,380.3,67.8,380.3,67.7z"/>
			</g>
			<path class="st9" d="M372.7,66.9c0-0.1,0-0.1-0.1-0.2c0,0-0.1-0.1-0.1-0.1c-0.1-0.1-0.1-0.1-0.2-0.1c0,0,0,0,0,0c0,0,0,0,0,0
				c0,0-0.1,0-0.1-0.1c0,0-0.1-0.1-0.1-0.1c-0.1,0-0.2,0-0.2,0c-0.2,0-0.3,0-0.4,0.1c-0.1,0-0.1,0.1-0.2,0.1
				c-0.1,0.1-0.2,0.2-0.2,0.4c0,0.1,0,0.2,0,0.4c0,0.1,0,0.2,0.1,0.3c0.1,0.1,0.1,0.2,0.2,0.2c0.1,0.1,0.2,0.1,0.3,0.2
				c0.1,0,0.2,0,0.4,0c0.1,0,0.2,0,0.3-0.1c0.1-0.1,0.2-0.1,0.2-0.2c0,0,0-0.1,0.1-0.1c0,0,0,0,0,0c0.1-0.1,0.1-0.1,0.1-0.2
				c0-0.1,0-0.1,0-0.2C372.7,67.1,372.7,67,372.7,66.9z"/>
			<path class="st18" d="M377.7,72.3c0-0.3-0.2-0.6-0.5-0.8c-0.2-0.1-0.5-0.3-0.5-0.5c0-0.1,0-0.2,0.1-0.3c0-0.1,0.1-0.2,0.1-0.4
				c0-0.2,0.1-0.4,0.1-0.6c0.1-0.5,0.2-1.1,0.1-1.6c-0.1-0.4-0.8-0.5-1-0.1c-0.4,0.7-0.3,1.6-0.3,2.4c0,0.3,0,0.7,0.3,1
				c0.2,0.2,0.4,0.3,0.6,0.5c0.2,0.1,0.5,0.3,0.5,0.5c0,0.3-0.3,0.6-0.5,0.7c-0.5,0.3-1.3,0.6-1.8,0.1c-0.2-0.2-0.5,0.1-0.4,0.3
				c0.4,0.8,1.3,0.8,2,0.5C377.1,73.7,377.9,73.1,377.7,72.3z"/>
			<path class="st18" d="M377,75.9c-1.6,1.3-4,1.3-5.5-0.3c-0.1-0.1-0.3,0-0.2,0.2c0.6,1,1.7,1.7,2.8,1.8c1.2,0.1,2.4-0.4,3.2-1.3
				C377.5,76,377.2,75.7,377,75.9z"/>
			<path class="st1" d="M381.4,85c0,4.3-6.3,13-6.3,13c-5.2-2.1-11.1-9.8-12.9-12.3c0.1-0.4,0.2-0.8,0.3-1l1.9-0.4
				c0.1-0.3,0.2-0.5,0.3-0.8c0.2-0.4,0.3-0.8,0.4-1.2c0.1-0.2,0.1-0.5,0.2-0.7c0.6,0.5,3.2,2.7,6.8,2.7c4.1,0,6.6-2.2,6.6-2.2
				l-0.1,1l-0.1,1.1l2.7,0.7C381.3,84.9,381.4,84.9,381.4,85z"/>
			<path class="st3" d="M372.2,84.3c-0.8,0-1.6-0.1-2.3-0.3c0.8,0.6,1.5,1.1,2.1,1.3c1.4,0.5,3.2-0.6,4.7-2
				C375.7,83.8,374.1,84.3,372.2,84.3z"/>
			<path class="st1" d="M383.5,73c0,0-0.1,0.3-0.4,0.8c-0.7,1.3-2.1,4.1-3,4.9c-0.9,0.9-2.6,3.4-5,4.5c-0.7,0.3-1.4,0.5-2.2,0.4
				c-3.5-0.1-7.5-4.6-8.3-5.7c0,0,1.4-3.8,1.5-6c0,0,4.5-2.2,8.6-1.8C378.8,70.7,383.5,73,383.5,73z"/>
			<path class="st1" d="M366.4,72.7c-0.9-1.7-4.7-4.9-4.7-4.9l0.3-0.4c0.2,0.1,3.9,3.3,4.9,5.1L366.4,72.7z"/>
			<path class="st1" d="M364.7,78c-0.1-0.1-2.1-2.6-3.3-5.7l0.5-0.2c1.1,3,3.6,5.7,3.6,5.8L364.7,78z"/>
			<path class="st7" d="M387,61.3c-0.1,4.7-2.8,8-2.8,8c0.6-3,0.6-5.3,0.1-7c-0.5-1.9-1.7-3.2-3.1-3.9l0,0c-2.4-1.2-5.5-0.9-7.8-0.3
				c-4.8,1.4-7.1,4.1-8.6,8.3c-0.8,2.1-1,4.7-1,6.8c0,0,0,0,0,0c0,2,0.1,3.5,0.1,3.5c-2.6-1-4.2-3.1-5.6-6.8
				c-0.2-0.5-0.4-1.1-0.5-1.8c-0.9-4.5-0.6-12.5,2.2-15.8c3.1-3.6,10.9-6.8,17.4-4.7c0.4,0.1,0.9,0.3,1.3,0.5
				c1.4,0.6,2.6,1.4,3.5,2.2c0,0,0,0,0,0C386,53.5,387.1,57.7,387,61.3z"/>
			<path class="st19" d="M383.1,73.8c-0.7,1.3-2.1,4.1-3,4.9c-0.9,0.9-2.6,3.4-5,4.5c-1.7-0.2-3.3-0.5-3.3-0.5l-1.6-1.4
				c0,0,2.5,0.7,3.6,0c0,0,4.1-4,4.4-5.7s-0.6-3.7-0.6-3.7S382.2,73.2,383.1,73.8z"/>
			<path class="st8" d="M387,61.3c-0.1,4.7-2.8,8-2.8,8c0.6-3,0.6-5.3,0.1-7l0.1-1.5c1.1,0.1,1.6-1.9,0.9-4c-0.6-2-2.9-6-3.1-6.3
				C386,53.5,387.1,57.7,387,61.3z"/>
			<path class="st20" d="M377.4,47.8c-6.9-0.7-13.3,1.5-16.9,5.6s-2.8,14.8-2.8,14.8c-0.9-4.5-0.6-12.5,2.2-15.8
				C363,48.9,370.9,45.7,377.4,47.8z"/>
			<path class="st20" d="M381.1,58.5c-2.4-1.2-5.5-0.9-7.8-0.3c-4.8,1.4-7.1,4.1-8.6,8.3c-0.8,2.1-1,4.7-1,6.8
				c-0.1-0.3-0.6-4.2,0.1-5.9c0.7-1.8,2.3-5.6,3.8-7.1c1.5-1.5,4.1-3.2,5.7-3.3C375,56.9,379.2,56.9,381.1,58.5z"/>
		</g>
	</g>
	<g>
		<path class="st21" d="M88.5,158c0,0,3.1-33.5,3.1-43.2c0-9.7,8.4-40.1,8.4-40.1l5.5-1.7l15.6,0.7l6.7-1.1l5.7,3.7l5.4,80.5
			c0,0-3.2,2.3-6.8,2.7S93,160.8,88.5,158z"/>
		<g>
			<path class="st8" d="M123,65.1c0,0,4.9-3.4,6.1-8.4c1.2-5,0.6-9.6,0.6-9.6l-5.7,11.7L123,65.1z"/>
			<path class="st17" d="M121,81.8c-2.2,2.8-6.8,5.2-9,3.7c-2.2-1.5-3.7-4.3-4.2-6.7c-0.5-2.4,0.2-6.8,0.2-6.8s0.2-0.7,0.4-1.6
				c0-0.3,0.1-0.5,0.1-0.8c0-0.2,0.1-0.4,0.1-0.5c0.2-1.2,0.4-2.6,0.4-3.7c0-2.6,12.5-0.7,12.5-0.7l0.4,2.5l0.3,2l0.1,0.9l0.3,1.5
				C122.6,71.7,123.2,79,121,81.8z"/>
			<path class="st18" d="M121.9,67.2c-1.5,1.8-4.3,5-6.3,5.9c-2.2,1-5.2-1.6-6.9-4.1c0.2-1.2,0.4-2.6,0.4-3.7
				c0-2.6,12.5-0.7,12.5-0.7L121.9,67.2z"/>
			<path class="st17" d="M103.5,47.6c0,0,0,11.5,1.2,14.3s6.3,8.3,8.1,8.7c1.8,0.4,8.3-3,11.3-7.7c3-4.8,2.4-14.9,2.2-17.6
				c-0.2-2.8-10.1-9.5-13.7-8.3s-8.7,1.2-9.1,3.8C103.1,43.2,103.5,47.6,103.5,47.6z"/>
			<g>
				<path class="st21" d="M109.8,52.6c-0.1-0.1-0.1-0.2-0.2-0.2c-0.1-0.1-0.2-0.1-0.3-0.1c-0.1,0-0.2,0-0.3,0.1c0,0,0,0,0,0
					c0,0,0,0,0,0c-0.1,0.1-0.2,0.1-0.2,0.2c0,0,0,0,0,0c-0.1,0.1-0.1,0.2-0.1,0.3c0,0.1,0,0.1,0,0.2c0,0.1,0.1,0.2,0.2,0.3
					c0.1,0.1,0.1,0.1,0.2,0.1c0.1,0,0.2,0.1,0.3,0.1c0.1,0,0.2,0,0.3-0.1c0.1,0,0.2-0.1,0.2-0.1c0.1-0.1,0.1-0.2,0.2-0.3
					c0,0,0,0,0-0.1c0-0.1,0-0.1,0-0.2C109.9,52.8,109.8,52.7,109.8,52.6z"/>
				<path class="st21" d="M118.2,52.5c0,0-0.1-0.2-0.1-0.2c0-0.1-0.1-0.1-0.1-0.2c-0.1-0.1-0.2-0.1-0.3-0.2c-0.1,0-0.1-0.1-0.2-0.1
					c-0.1,0-0.2,0-0.3,0c-0.1,0-0.1,0.1-0.2,0.1c-0.1,0-0.1,0.1-0.2,0.1c-0.1,0.1-0.1,0.1-0.1,0.2c0,0,0,0,0,0l0,0c0,0,0,0,0,0
					c-0.1,0.1-0.1,0.2-0.1,0.4c0,0.1,0,0.1,0,0.2c0,0.1,0.1,0.2,0.2,0.3c0,0.1,0.1,0.1,0.2,0.1c0.1,0,0.2,0.1,0.3,0.1
					c0,0,0.1,0,0.1,0c0,0,0,0,0,0c0,0,0,0,0,0c0,0,0,0,0,0c0,0,0,0,0,0c0,0,0,0,0,0c0,0,0,0,0,0c0,0,0.1,0,0.1,0
					c0.1,0,0.2,0,0.3-0.1c0.1,0,0.1-0.1,0.2-0.1c0-0.1,0.1-0.1,0.1-0.2c0.1-0.1,0.1-0.2,0.1-0.3C118.2,52.8,118.2,52.7,118.2,52.5z"
					/>
				<path class="st12" d="M110.8,50c-0.2-0.3-0.7-0.3-1-0.3c-0.3,0-0.7,0-1,0c-0.7,0.1-1.3,0.3-1.8,0.6c-0.2,0.1-0.1,0.5,0.2,0.4
					c0.6-0.2,1.2-0.3,1.7-0.4c0.3,0,0.6,0,0.9,0c0.1,0,0.3,0.1,0.4,0.1c0.2,0,0.4,0,0.6-0.1C110.9,50.3,110.9,50.1,110.8,50z"/>
				<path class="st12" d="M119.5,50.1c-0.5-0.3-1-0.5-1.5-0.5c-0.3,0-0.5,0-0.8,0c-0.1,0-0.3,0-0.4,0.1c-0.1,0-0.1,0-0.2,0.1
					c0,0-0.1,0-0.1,0c0,0-0.1,0-0.1,0c-0.3,0-0.5,0.3-0.4,0.6c0.1,0.3,0.5,0.3,0.7,0.1c0.1-0.1,0.4-0.2,0.6-0.2
					c0.2-0.1,0.4-0.1,0.6-0.1c0.5,0,0.9,0.1,1.3,0.3C119.5,50.5,119.7,50.2,119.5,50.1z"/>
				<path class="st1" d="M118.2,62.1c-1,1.5-2.7,2.6-4.6,2.6c-1.7,0.1-3.8-0.8-4.7-2.3c1.4-0.2,2.9-0.2,4.3-0.3c0.8,0,1.7,0,2.5,0
					C116.1,62.1,118.1,62.3,118.2,62.1z"/>
				<path class="st12" d="M113.1,59.2c-0.4-0.2-1.1-0.4-1.3-0.9c-0.2-0.5,0.3-1,0.7-1.2c0.2-0.2,0.5-0.4,0.5-0.6
					c0.1-0.4-0.1-0.7-0.2-1c-0.1-0.4-0.1-0.8-0.1-1.1c0-0.4,0.1-0.8,0.1-1.2c0-0.4-0.6-0.5-0.8-0.1c-0.1,0.4-0.1,0.9-0.1,1.3
					c0,0.4,0,0.9,0.1,1.3c0,0.2,0,0.3,0,0.5c-0.1,0.1-0.2,0.2-0.3,0.2c-0.3,0.2-0.5,0.4-0.7,0.7c-0.3,0.6-0.2,1.3,0.2,1.7
					c0.4,0.5,1,0.6,1.6,0.6C113.3,59.5,113.3,59.2,113.1,59.2z"/>
			</g>
			<path class="st1" d="M123.9,59.5l-0.5-0.1c0-0.1,0.9-3.6,2.8-5.9l0.4,0.3C124.8,56,123.9,59.5,123.9,59.5z"/>
			<path class="st1" d="M125.2,60.7l-0.4-0.3c0,0,1.2-1.9,1.5-5.1l0.5,0.1C126.4,58.8,125.3,60.7,125.2,60.7z"/>
			<g>
				<path class="st1" d="M103.8,58.9c0,0-0.4-3.3-0.6-5.9l0.5,0c0.2,2.6,0.7,6.2,0.7,6.3L103.8,58.9z"/>
			</g>
			<path class="st1" d="M103.8,58.9c0,0,3.1-1.7,8.1-2.8c4.9-1.1,11,2.1,13.6,4.1c0,0,0.3,1.6-1.4,4.3c-1.7,2.7-5.8,8.2-10.3,7.5
				C110.5,71.5,103.8,66.7,103.8,58.9z"/>
			<path class="st19" d="M122.9,59.5c-0.8-0.2-2.2-1.1-3.9-1.6c-1.7-0.5-5.4-0.6-5.4-0.6s1.6,1.1,2.8,1.8c-1.7-0.3-3.7-0.6-3.9-0.6
				l4,1.5l1.3,0.2c0.4,0.4,0.7,1,1.1,1.9c0.8,1.6-0.5,4.5-1.4,6.3c-1,1.7-4.4,2.9-4.4,2.9s2.3,0.3,3.6-0.2c1.3-0.5,3.8-2.5,5-3.9
				c1.2-1.4,3.3-6.6,3.3-6.6S123.7,59.8,122.9,59.5z"/>
			<path class="st22" d="M111.5,51.6c-0.5-0.7-1.3-1.2-2.2-1.5c-1.7-0.5-3.9,0.2-4.8,1.7c-0.8,1.3-0.7,3.1,0.3,4.3
				c0.5,0.7,1.2,1.2,1.9,1.5c1.5,0.6,3.4-0.1,4.5-1.3c0.8-1,1.1-2.5,0.7-3.7C111.9,52.3,111.7,51.9,111.5,51.6z M110.9,55.5
				c-0.8,1-2,1.7-3.3,1.6c-1.2-0.2-2.3-1.1-2.6-2.3c-0.3-1.2,0.1-2.5,1.1-3.2c1-0.7,2.4-0.8,3.5-0.3C111,52,112,54,110.9,55.5
				C110.9,55.4,110.9,55.4,110.9,55.5z"/>
			<path class="st22" d="M114.4,51.8c-0.1-0.1-0.3-0.1-0.4-0.2c-0.3-0.1-0.6-0.2-0.9-0.2c-0.6,0-1.3,0.1-1.8,0.5
				c-0.2,0.1-0.1,0.5,0.2,0.4c0.3-0.1,0.5-0.1,0.8-0.2c0.2,0,0.5,0,0.7,0c0.2,0,0.5,0,0.7,0.1c0.1,0,0.3,0.1,0.4,0.1
				c0.1,0.1,0.3,0.1,0.4,0.1c0.1,0,0.2-0.2,0.2-0.3C114.7,52,114.6,51.9,114.4,51.8z"/>
			<path class="st22" d="M126.7,49.8c-1,0.1-2,0.4-2.9,0.8c-0.8,0.3-1.6,0.6-2.3,1c-0.5-0.7-1.1-1.3-2-1.4c-0.9-0.1-2-0.2-2.9,0.1
				c-2.5,0.9-3.2,3.9-1.7,6c0.5,0.7,1.2,1.2,1.9,1.5c1.5,0.6,3.4-0.1,4.5-1.3c1-1.2,1.1-2.9,0.5-4.3c0.8-0.2,1.6-0.4,2.3-0.7
				c0.9-0.3,1.9-0.7,2.7-1.2C127,50.1,127,49.7,126.7,49.8z M120.9,55.5c-0.9,1.6-2.9,2.1-4.5,1.1c-1.5-0.9-2.1-3-1.1-4.4
				c0.9-1.3,2.7-1.7,4.1-1.2C121.2,51.7,121.8,53.9,120.9,55.5z"/>
			<path class="st22" d="M104.8,52c-0.1-0.1-0.3-0.2-0.4-0.3c-0.1-0.1-0.3-0.1-0.4-0.2c-0.1-0.1-0.3-0.1-0.4-0.2
				c-0.1,0-0.1-0.1-0.2-0.1c0,0-0.1,0-0.1-0.1c-0.1,0-0.2-0.1-0.3-0.1c-0.2,0-0.3,0.1-0.4,0.3c-0.1,0.2,0,0.3,0.1,0.5
				c0.1,0.1,0.3,0.2,0.5,0.3c0.2,0.1,0.3,0.2,0.5,0.2c0.2,0.1,0.3,0.1,0.5,0.1c0.2,0,0.4,0.1,0.5,0.1c0.1,0,0.2-0.1,0.3-0.2
				C105,52.2,104.9,52.1,104.8,52z"/>
			<path class="st7" d="M129.6,52.9c-0.7,5.2-4.2,7.3-4.2,7.3s1.7-7.6,0-10.3c-0.3-0.5-0.8-1.1-1.3-1.6c-2.1-2-5.4-3.5-8.9-3.8
				c-4.4-0.3-8.8,0.2-10.7,3.2c-1.8,3-0.8,10.8-0.8,10.8c-3-2-3.3-11.1-2.4-14.4c0.8-3.2,3.4-7.3,9.2-9.3c5.8-1.9,12.3-0.2,15.7,2.1
				c0.9,0.6,1.6,1.7,2.2,3C129.8,43.6,130.1,49,129.6,52.9z"/>
			<path class="st8" d="M129.6,52.9c-0.7,5.2-4.2,7.3-4.2,7.3s1.7-7.6,0-10.3c-0.3-0.5-0.8-1.1-1.3-1.6c1,0.2,2,0.5,2.3,0.8
				c0.6,0.5,1.1,0.1,1.7-1.7c0.6-1.8,0.6-3.1,0.6-4.7c0-0.7-0.2-1.7-0.4-2.7C129.8,43.6,130.1,49,129.6,52.9z"/>
			<path class="st20" d="M119.6,44.6c-1-0.8-6.6-1.2-8.7-1.1c-2.1,0.1-5.7,2-7.1,4.3c-0.9,1.5-0.6,4.2-0.3,6c0-2.2,0.3-4.6,1.1-6
				c1.8-3,6.3-3.5,10.7-3.2c2.1,0.2,4.2,0.8,5.9,1.7C120.7,45.7,120,45,119.6,44.6z"/>
			<path class="st20" d="M110.5,34.9c-5.8,1.9-8.4,6-9.2,9.3c-0.5,2-0.6,6.1,0.1,9.5c0.1-3.3,0.3-8.3,0.6-9.5
				c0.5-1.7,3.4-5.3,4.1-5.9c0.6-0.6,2.8-1.3,2.8-1.3s-2.4,1.7-1.6,2.4c0.7,0.7,5-0.3,5.7-1.6c0.7-1.3,0.2-2.6,0.2-2.6
				s3.2-0.6,5.7-0.3c1,0.1,2.3,0.2,3.6,0.2C119,34,114.5,33.5,110.5,34.9z"/>
		</g>
		<g>
			<path class="st23" d="M125.6,298.8c0,0-1.7,3.1-2,4.2c-0.3,1.1-0.2,8.6-0.2,8.6s11.9,1.5,19-0.1c0,0-0.5-8.5-0.8-9.9
				c-0.3-1.4-1.9-4.2-1.9-4.2L125.6,298.8z"/>
			<path class="st23" d="M109.5,298.6c0,0,0.8,12.7,0.5,12.8c-0.3,0.1-12,0.1-12,0.1l-0.6-1.5l-1,1.6c0,0-21.9,0-22.6-0.1
				s1.2-6.8,3.3-7.6c2.1-0.9,11.8-2.2,11.8-2.2l3.9-4.6L109.5,298.6z"/>
			<g>
				<path class="st24" d="M113.6,159.4c0,0,0,0.5-0.1,1.4c-0.2,4.2-0.7,17.1-1.3,31.1v0c0,0.3,0,0.5,0,0.8v0
					c-0.6,14.4-1.3,29.6-1.6,37.5c-0.8,17.3,0,68.6,0,68.6s-10.8,2.3-19.4-0.5c0,0-2-70-2.4-93.9c-0.1-3.9-0.1-6.5-0.1-7.5
					c0.2-7,0-35.4,0-35.4L113.6,159.4z"/>
				<path class="st24" d="M142.5,299.3c0,0-0.6,0.1-1.7,0.3c-2.8,0.4-8.6,0.9-15.5-0.2c-0.7-0.1-1.4-0.2-2.2-0.4
					c0,0-4.6-51.6-4.9-57.3c-0.1-2.4-1.9-16.7-3.9-32.6c-0.7-5.7-1.5-11.6-2.2-17.2v0c0-0.3-0.1-0.6-0.1-0.9
					c-1.5-12-2.9-22.7-3.5-27.4c-0.1-0.6-0.2-1.2-0.2-1.6c-0.1-0.7-0.1-1-0.1-1l0.5,0l4.9-0.2l0.1,0l1.1,0l2.4-0.1L135,160
					c0,0,0,0.3,0,1c0,0.8,0.1,2.1,0.1,3.8c0.2,5.1,0.5,13.6,0.8,23.2c0,0.3,0,0.6,0,0.9c0,0.2,0,0.4,0,0.6
					c0.3,7.3,0.5,15.2,0.8,22.6c0.2,4.3,0.3,8.4,0.4,12.1c0.4,9.7,0.7,17,0.8,18.4C138.6,247.4,142.5,299.3,142.5,299.3z"/>
				<path class="st15" d="M137.3,224.2l-13.3-6.7l-0.3-3.1l-0.3-4.3l-3.4-0.4l-5.6-0.6c-0.7-5.7-1.5-11.6-2.2-17.2v0
					c0-0.3-0.1-0.6-0.1-0.9l-3.6-16.9l-2.6,33.8c0,0-2.3-0.5-4.9-1.1c-3.6-0.8-8-1.7-8.7-1.7l-3.4-0.8c-0.1-3.9-0.1-6.5-0.1-7.5
					c0.2-7,0-35.4,0-35.4l24.9-2c0,0,0,0.5-0.1,1.4l0.1,0l1.1,0l2.4-0.1L135,160c0,0,0,0.3,0,1c0,0.8,0.1,2.1,0.1,3.8
					c0.2,5.1,0.5,13.6,0.8,23.2c0,0.3,0,0.6,0,0.9c0,0.2,0,0.4,0,0.6c0.3,7.3,0.5,15.2,0.8,22.6C137,216.3,137.1,220.4,137.3,224.2z
					"/>
				<g>
					<path class="st16" d="M87.1,157.9c0,0,29.4,2.2,51.6-1.2v4c0,0-35.4,2.6-51.6,0.5V157.9z"/>
					<g>
						<path class="st25" d="M114,163.5l-5.7,0.1c-0.4,0-0.7-0.3-0.7-0.7l-0.1-5.7c0-0.4,0.3-0.7,0.7-0.7l5.7-0.1
							c0.4,0,0.7,0.3,0.7,0.7l0.1,5.7C114.7,163.2,114.4,163.5,114,163.5z"/>
						
							<rect x="108.6" y="157.5" transform="matrix(0.9998 -1.745320e-002 1.745320e-002 0.9998 -2.7751 1.9632)" class="st1" width="4.9" height="4.9"/>
					</g>
				</g>
			</g>
		</g>
		<g>
			<path class="st1" d="M105.2,136.5c-0.1,1.1-0.2,2.7-0.2,4.7c0,8.1,0.6,22.2,0.5,28.6c-0.1,7.9-5.2,40.3-5.2,40.3
				c-10.7,0.9-21.4-2.6-21.4-2.6s7.2-49.4,7.5-58.6c0.1-2.4,0.2-5.9,0.5-10c0.1-2.5,0.3-5.2,0.5-8.1c0.7-10.6,1.6-23.2,2.5-33.2
				c1.5-17.3,9.9-22.8,9.9-22.8s1.8,7,2.4,14.4c0.6,7.5,4.9,17,4.9,17s-0.8,13-1.4,22.3C105.6,132,105.3,135,105.2,136.5z"/>
			<path class="st3" d="M105.8,128.4c-0.3,3.5-0.5,6.5-0.6,8c-0.1,1.1-0.2,2.7-0.2,4.7c-3.8-0.5-13.2-1.7-18.1-2.4
				c0.1-2.5,0.3-5.2,0.5-8.1L105.8,128.4z"/>
			<path class="st1" d="M147.3,208c-3.2,1.8-6.9,3.1-10.4,4.1c-5.1,1.4-10,2.1-13.1,2.4c-2,0.2-3.2,0.3-3.2,0.3s-0.2-2-0.6-4.9
				c-0.9-7.2-2.4-20.1-2.5-21.6c-0.1-1.2-0.1-13.7-0.3-26.4c0-0.4,0-0.8,0-1.2c0-0.3,0-0.6,0-0.8c0-0.4,0-0.9,0-1.3
				c-0.1-5.2-0.2-10.3-0.4-14.4c0-0.5-0.1-1.1-0.1-1.6c-0.1-2.2-0.2-4-0.4-5.4c-0.1-1.3-0.3-2.8-0.4-4.3c0-0.2,0-0.3,0-0.5
				c-0.1-1.4-0.2-3-0.3-4.5c-0.1-2.1-0.2-4.3-0.2-6.4c0-1.1,0-2.1-0.1-3.1c-0.1-6.4-0.1-11.5-0.1-11.5s0,0,0,0h0c0,0,0,0,0,0
				c3.4-4.2,7.2-12.2,9.7-18.3c0.3-0.8,0.6-1.5,0.9-2.2c1.4-3.3,2.2-5.7,2.2-5.7l1.6-1.4l2.9-2.4l0.8-0.6l4.5,1.7c0,0,0,0.7-0.1,1.9
				V80c-0.2,4.2-0.7,13.7-1,20.1c-0.1,2.5-0.2,4.5-0.2,5.5c0,1.3,0.3,4.8,0.7,9.4c0.1,0.7,0.1,1.4,0.2,2.2c0,0.1,0,0.3,0,0.4
				c0.1,0.7,0.1,1.3,0.2,2c0.1,0.4,0.1,0.8,0.1,1.2c0,0.3,0.1,0.6,0.1,0.9c0.4,3.7,0.8,7.7,1.2,11.6c0.1,1.1,0.2,2.3,0.4,3.4
				c0,0.4,0.1,0.9,0.1,1.3c0,0.6,0.1,1.1,0.2,1.6c0.3,2.7,0.5,5.3,0.7,7.8c0.4,4.7,0.7,8.7,0.8,11.3c0,1.3,0.2,3,0.3,5
				c0.1,1.6,0.3,3.3,0.5,5.1c0.1,0.8,0.2,1.5,0.3,2.3c0.1,0.6,0.1,1.3,0.2,1.9c0,0.1,0,0.3,0,0.5c0.1,0.8,0.2,1.6,0.3,2.5
				c0.1,0.5,0.1,1,0.2,1.5c0.1,0.8,0.2,1.5,0.3,2.3c0.1,0.8,0.2,1.5,0.3,2.3c0.2,1.3,0.3,2.7,0.5,4c0,0.2,0,0.4,0.1,0.6
				c0.1,0.6,0.2,1.3,0.3,1.9C145.9,199.1,147.3,208,147.3,208z"/>
			<rect x="122.7" y="108.2" class="st26" width="6.3" height="1.8"/>
			<path class="st3" d="M138.1,146.7l-9.8-3.5l7.5,7l-19.1-6.1c0-0.5-0.1-1.1-0.1-1.6c-0.1-2.2-0.2-4-0.4-5.4
				c-0.1-1.3-0.3-2.8-0.4-4.3c0-0.2,0-0.3,0-0.5c-0.1-1.4-0.2-3-0.3-4.5c-0.1-2.1-0.2-4.3-0.2-6.4l4.6-2.1l11.3-5.3l2.4-15.7l0.1,0
				l1.2,0.7l1.9,1.1c-0.1,2.5-0.2,4.5-0.2,5.5c0,1.3,0.3,4.8,0.7,9.4c0.1,0.7,0.1,1.4,0.2,2.2c0,0.1,0,0.3,0,0.4
				c0.1,0.7,0.1,1.3,0.2,2c0.1,0.4,0.1,0.8,0.1,1.2c0,0.3,0.1,0.6,0.1,0.9c0.4,3.7,0.8,7.7,1.2,11.6c0.1,1.1,0.2,2.3,0.4,3.4
				c0,0.4,0.1,0.9,0.1,1.3c0,0.6,0.1,1.1,0.2,1.6c0.3,2.7,0.5,5.3,0.7,7.8L138.1,146.7z"/>
			<g>
				<path class="st3" d="M131.9,75.3l1.4,0.9c0,0-0.9,12.4-3.1,17l-2.3,0.6l0.8,2.2c0,0-7.4,7.7-13.5,10.7c0,0,7-6.8,9.9-16.3
					C128,81.1,131.9,75.3,131.9,75.3z"/>
				<path class="st1" d="M127.7,72.5l5.2,2.4c0,0-1.5,12.4-3.7,17.8L126,93l1.2,2.7c0,0-5.2,6.3-12,11.1
					C115.1,106.8,128.2,83.8,127.7,72.5z"/>
			</g>
			<g>
				<path class="st3" d="M99.9,76c0,0-2.4,6.7-2.4,11.4c0,4.7,3.5,15.5,9.8,18.7l-3.8-10.8l-1.1-12.6L99.9,76z"/>
				<path class="st1" d="M107.3,106.1c0,0-6.2-19.4-1.9-33.2l-5.5,1.7c0,0-2.6,9.3-1.5,14.7l2.8,1.5l-2.3,1.4
					C98.9,92.3,101.7,101.6,107.3,106.1z"/>
			</g>
			<path class="st1" d="M144.3,186.7c-1.9,0.7-5.8,2.1-7.1,2.3c-0.3,0-0.8,0-1.2-0.1c-1.9-0.3-4.6-1.4-4.8-1.5l0,0
				c0,0-1.2-5.3-2.2-11.8c-0.5-3.2-0.9-6.7-1.1-9.9c0,0,3.5-0.5,7.3-1c2.4-0.3,4.9-0.7,6.5-0.9c0.1,1.6,0.3,3.3,0.5,5.1
				c0.1,0.8,0.2,1.5,0.3,2.3c0.1,0.6,0.1,1.3,0.2,1.9c0,0.1,0,0.3,0,0.5c0.1,0.8,0.2,1.6,0.3,2.5c0.1,0.5,0.1,1,0.2,1.5
				c0.1,0.8,0.2,1.5,0.3,2.3c0.1,0.8,0.2,1.5,0.3,2.3c0.2,1.3,0.3,2.7,0.5,4C144.3,186.3,144.3,186.5,144.3,186.7z"/>
			<path class="st1" d="M84.2,164.3h10.5c0,0-1.9,17.8-3.6,20.2c-1.6,2.5-8.4,1.9-8.4,1.9L84.2,164.3z"/>
			<path class="st3" d="M144.6,188.6c-3.1,0.4-7.7,1-8.4,0.9c-0.1,0-0.1,0-0.2,0c-1.1-0.3-3.9-0.9-4.8-2l0,0
				c-1-1.2-2.3-12.1-2.3-12.1s0,0.1,0.1,0.4c0.5,1.9,2.5,10.3,2.9,11c0.3,0.5,2.6,1.1,4.1,1.3c0.7,0.1,1.1,0.2,1.1,0.2l5-3l-1.3-6.7
				l-3.1-1.3l4.3-4.3l0.2-4c0.1,0.8,0.2,1.5,0.3,2.3c0.1,0.6,0.1,1.3,0.2,1.9c0,0.1,0,0.3,0,0.5c0.1,0.8,0.2,1.6,0.3,2.5
				c0.1,0.5,0.1,1,0.2,1.5c0.1,0.8,0.2,1.5,0.3,2.3c0.1,0.8,0.2,1.5,0.3,2.3c0.2,1.3,0.3,2.7,0.5,4c0,0.2,0,0.4,0.1,0.6
				C144.4,187.4,144.5,188,144.6,188.6z"/>
			<path class="st3" d="M93.2,173.6c0,0-0.8,10.3-2.2,11.6c-1.4,1.3-8.3,1.2-8.3,1.2l0.2-1.3c0,0,6.2,0.9,7.4-0.9
				C91.4,182.4,93.2,173.6,93.2,173.6z"/>
			<polygon class="st3" points="89.8,164.1 93.8,164.5 94.1,168.5 94.6,163.6 			"/>
		</g>
		<g>
			<g>
				<path class="st25" d="M111.4,94.1c0,0-4.8,23.3-5.5,33.5c0,0,0.4,14.4,3.5,20.4c0,0,5.6-15.6,5.8-21l-1-32.9
					C114.1,94.1,112.5,93.1,111.4,94.1z"/>
				<path class="st25" d="M109.8,86c0,0,0.6,5.5,1.6,8.1c0,0,1.4-0.4,2.7,0c0,0,3.1-5.2,3.4-7.7c0.3-2.5-3.2-3.2-3.2-3.2l-4.1,1
					L109.8,86z"/>
			</g>
			<path class="st26" d="M114.3,83.2c0,0,2.1,2.3,3.5,5c0,0,9.3-6,9.9-15.7l-5.2-1.9C122.4,70.6,121.3,78.7,114.3,83.2z"/>
			<path class="st26" d="M114.3,83.2c0,0-3.5,0.8-4.9,5c0,0-4.3-5.9-4-15.3l2.9-2.3C108.3,70.6,107.7,79.9,114.3,83.2z"/>
		</g>
		<g>
			<path class="st1" d="M116.4,132.2c0,0-3.5,0.6-8,1.2c-4.9,0.8-11.2,1.7-15.6,2.2c-8.5,1-15.2-0.1-15.2-0.1s-4.3-7.6-4.5-10.1
				c-0.3-2.5,11-41.2,13.4-45.2c0,0,7.2-4.1,13.4-5.7c0,0-4.6,6.1-7.2,13.7c-0.5,1.4-0.9,2.8-1.2,4.3c-1.9,9.6-3,30.8-3,30.8
				s22.2-2.4,25.4-3l1.1,5.2L116.4,132.2z"/>
			<path class="st3" d="M80.7,131.4c0,0,14.8-0.2,24.6-2.3l3.3,2.3C108.6,131.4,89.2,133.6,80.7,131.4z"/>
			<path class="st3" d="M116.4,132.2c0,0-3.5,0.6-8,1.2l-3.1-4.4l7.6-4l2.1,0.7L116.4,132.2z"/>
			<path class="st3" d="M92.7,88.4c-0.5,1.4-0.9,2.8-1.2,4.3c-1.9,9.6-3,30.8-3,30.8s-5-0.5-7.9,0l3.9-2.7l-2-7.2l3.4-0.3
				c0,0,0.8-19.3,6.7-28L92.7,88.4z"/>
		</g>
		<g>
			<path class="st4" d="M110.8,119l-4.2,7.1l-0.5,0.9c0,0-6.2-2-8.4-2.7c-1.9-0.6-5.5-0.9-6.4-1c-0.1,0-0.2,0-0.2,0s0.7-0.7,1.6-1.5
				c1.7-1.5,4.4-3.6,6.5-4.2c2.8-0.8,9,0.8,11,1.3C110.6,119,110.8,119,110.8,119z"/>
			<path class="st6" d="M110.2,118.8l-0.3,0.5c0,0-5.7-1.8-8.4-1.7c-2.7,0.1-8.7,4.1-8.7,4.1c1.7-1.5,4.4-3.6,6.5-4.2
				C102,116.7,108.2,118.3,110.2,118.8z"/>
			<path class="st5" d="M107.4,120.8l-0.8,5.3l-0.5,0.9c0,0-6.2-2-8.4-2.7c-1.9-0.6-5.5-0.9-6.4-1c1.4-0.5,3.7-1.1,4.9-1.3
				c1.9-0.3,7.2,0.3,7.2,0.3L107.4,120.8z"/>
		</g>
		<g>
			<path class="st1" d="M145.3,82.8c-1.9-2.6-7.5-4.9-7.5-4.9c-1.4,1.5-4.1,9.9-4.3,16.6c-0.1,4.4,0.9,14.7,1.6,21.2
				c0.4,3.3,0.6,5.7,0.6,5.7c-2.6,0-6-0.3-9.5-0.9c-7.4-1.2-14.9-3.1-14.9-3.1s-4.1,1.7-5.2,3.2c-1,1.5-0.9,8.5-0.9,8.5
				s5.9,2.1,13.4,4.8c7.5,2.7,24.9,5.3,26.5,4.4c1.6-0.9,5.9-6.6,5.9-7.2C151.1,130.4,147.3,85.4,145.3,82.8z"/>
			<path class="st3" d="M141,115c0,0,3.1,1,3.4,1.7c0.3,0.7-4,5.8-4,5.8l-1.2-4.5L141,115z"/>
			<path class="st3" d="M120.3,133.1c0,0,20,0.6,22.5,0c2.5-0.6,6.8-2,6.8-2s-2.6,4.4-3,4.4s-6.5,0.6-6.5,0.6l4.7,0.5l-1.3,0.7
				C143.5,137.3,125.8,135.5,120.3,133.1z"/>
			<path class="st3" d="M134.2,89.7c0,0,0.9-7.4,4.1-10.3C138.3,79.4,133.9,81.8,134.2,89.7z"/>
		</g>
		<g>
			<path class="st16" d="M108.5,69.6c0,0.3-0.1,0.6-0.1,0.8c-11.3,4.7-9.5,28.8-9.5,29.1l-0.7,0.1C98.1,98.5,96.3,74,108.5,69.6z"/>
			<path class="st16" d="M124.6,97.3l-0.7-0.1c0-0.2,2.4-19.2,1.6-22.3c-0.5-2.2-1.6-3.8-3.2-4.7l-0.1-0.9c0.2,0.1,0.3,0.2,0.4,0.2
				c1.8,1.1,3,2.8,3.6,5.2C127,77.9,124.7,96.5,124.6,97.3z"/>
			<circle class="st16" cx="124" cy="99.3" r="2.5"/>
			<circle class="st1" cx="124" cy="99.3" r="1.4"/>
			<g>
				<path class="st16" d="M95.3,111.5c0-0.3-1-8.2,1.3-11.2c0.5-0.7,1.2-1,1.9-1.1c1.4,0,2.6,0.5,3.5,1.5c2.7,3.1,1.6,10.2,1.5,10.5
					l-0.7-0.1c0-0.1,1.1-7-1.4-9.9c-0.7-0.9-1.7-1.3-2.9-1.2c-0.5,0.1-1,0.3-1.4,0.8c-2.1,2.7-1.1,10.6-1.1,10.6L95.3,111.5z"/>
			</g>
			<circle class="st16" cx="95.6" cy="111.4" r="1.2"/>
			<circle class="st16" cx="103" cy="111.3" r="1.2"/>
			<g>
				<path class="st16" d="M98.5,96.2c-0.4,0-0.7-0.3-0.7-0.7c-0.2-2.1,0.3-7,0.3-7.2c0-0.4,0.4-0.7,0.8-0.7c0.4,0,0.7,0.4,0.7,0.8
					c0,0-0.5,4.9-0.3,6.9C99.3,95.7,99,96.1,98.5,96.2C98.5,96.2,98.5,96.2,98.5,96.2z"/>
			</g>
		</g>
		<g>
			<path class="st4" d="M141.4,119.9c-0.1,0.4-0.2,0.8-0.4,1.3c-0.3,0.8-0.6,1.4-0.6,1.4s-2.1-1-4.8-1.2c-1.3,0-2.9-0.1-4.5-0.2
				c0,0,0,0,0,0c-1.5-0.2-3-0.4-4.6-0.6c-0.2,0-0.5-0.1-0.7-0.1c1-0.8,5.4-4,9.1-4.9c0,0,0,0,0,0c4.3-1,5.2-0.8,5.6-0.7
				c0.3,0.1,0.5,0.4,0.6,0.7c0,0.1,0,0.2,0,0.3c0,0.2,0,0.4-0.1,0.7c-0.1,0.3-0.2,0.5-0.2,0.5s0,0,0,0
				C141,117.2,141.6,118.8,141.4,119.9z"/>
			<path class="st6" d="M141.2,115.6c-1.2,0-6.2,0.2-7.6,0.6c-1.2,0.4-5.4,3.2-7.1,4.3c-0.2,0-0.5-0.1-0.7-0.1c1-0.8,5.4-4,9.1-4.9
				c0,0,0,0,0,0c4.3-1,5.2-0.8,5.6-0.7C140.9,114.9,141.1,115.2,141.2,115.6z"/>
			<path class="st5" d="M141.1,116.5c-0.1,0.3-0.2,0.5-0.2,0.5s0,0,0,0c-0.6,0-2,0.2-2.8,0.4c-0.9,0.3-2.1,0.8-2.3,0.9
				c0.2-0.2,1.7-1.4,3-1.6C139.6,116.6,140.4,116.5,141.1,116.5z"/>
			<path class="st5" d="M141,121.1c-0.3,0.8-0.6,1.4-0.6,1.4s-2.1-1-4.8-1.2c-1.3,0-2.9-0.1-4.5-0.2c1.1-0.2,4.1-0.7,5.1-1
				c1.2-0.5,3.5-0.7,3.5-0.7l0.4,0.2l-2.3,1.3c0,0,1,0,1.8,0.1C140,120.9,140.5,121,141,121.1z"/>
		</g>
	</g>
	<g>
		<g>
			<path class="st1" d="M338.7,179.7L338.7,179.7l-3.8-0.4l-8-0.9l-0.2-8.1l-1.2-40.2l-4.3-24.1l-1.9-10.7l2.3-6.7
				c0,0,7.7,8.1,8.6,9c0.2,0.2,1.5,2.2,2.2,5.2c1.4,6.1,2.6,11.7,3.6,17.4c0.4,2,0.6,7.9,0.6,8.5
				C337.1,131.8,338.7,179.7,338.7,179.7z"/>
			<path class="st3" d="M338.6,179.7l-3.7-0.4c-3-2.2-5.9-5.7-8.2-8.9l-1.2-40.2l-4.3-24.1l0-15.1l9.2,11.8l2.9,8
				c0.8,3.8,1.6,7.9,2.2,11.2l-0.5,8.1l-1.2,6.1l1.7,14.7L338.6,179.7z"/>
		</g>
		<g>
			<polygon class="st24" points="355.1,160.1 352.5,182.9 339.8,181.5 327.6,180.1 319.2,179.2 320.1,171.1 321.8,156.4 336.2,158 
							"/>
			<polygon class="st27" points="339.8,181.5 327.6,180.1 320.1,171.1 321.8,156.4 336.2,158 336.2,158 			"/>
			
				<rect x="342.4" y="162.2" transform="matrix(0.9938 0.1108 -0.1108 0.9938 20.9964 -37.3591)" class="st1" width="8.2" height="16"/>
		</g>
		<g>
			<path class="st4" d="M341.6,181.6l-0.1,0.1l0,0c-0.5,0.6-3.3,1.2-4.5,0.3c-1.3-1,0-4.9,0-4.9s1-0.2,1.9-0.1
				c0.5,0.1,0.9,0.2,1.1,0.5C340.6,178.3,341.6,181,341.6,181.6z"/>
			<path class="st5" d="M341.6,181.6l-0.1,0.1l0,0c-0.5,0.6-3.3,1.2-4.5,0.3c-1.3-1,0-4.9,0-4.9s1-0.2,1.9-0.1
				c0,0.9,0.2,2.2,0.3,3.4L341.6,181.6z"/>
		</g>
		<g>
			<path class="st9" d="M297.1,308.6c0,0.7-0.9,3.1-0.9,3.1s-13,1.5-13.6,0.4c-0.7-1.1,0-6.4,0-6.4l2.9-6.9l1,0l9.7,0.2l0.6,0
				C296.8,299,297.1,307.9,297.1,308.6z"/>
			<path class="st19" d="M296.2,299c0,1.4-0.3,8.2-0.7,8.7c-0.4,0.6-8.5,0.1-10-0.4c-1.3-0.4,0.6-6.5,1-8.5L296.2,299z"/>
		</g>
		<g>
			<path class="st9" d="M346.3,310.4c-0.4,0.4-5.8,0.6-10,0.4c-4.2-0.2-18.2,0.2-18.2,0.2l-2-2c0,0,0.2-3.6,0.4-4.8
				c0.1-0.5,0.2-1.5,0.4-2.6c0.2-1.8,0.5-3.7,0.5-3.7l9.4-0.2c0.9,2.9,6.3,6.7,9.4,7.2c0.3,0,0.6,0.1,0.9,0.2c2.3,0.5,6.4,1.5,8.3,2
				c0.7,0.2,1.2,0.8,1.2,1.6C346.6,309.4,346.5,310.2,346.3,310.4z"/>
			<path class="st19" d="M337.1,305.1c-0.9,0.9-2.6,1.9-5.5,2.1c-4.9,0.2-13-3.3-13.8-4.5c-0.2-0.3-0.6-0.7-0.9-1.1
				c0.2-1.8,0.5-3.7,0.5-3.7l9.4-0.2c0.9,2.9,6.3,6.7,9.4,7.2C336.4,304.9,336.7,305,337.1,305.1z"/>
		</g>
		<g>
			<path class="st28" d="M334.3,167.8V225c0,0-1.8,17.6-2.7,23c-1,5.4-4.1,50.3-4.1,50.3c-4.6,0.8-11.2,0.4-11.2,0.4
				s-1.2-34.1-1.6-43c-0.4-8.9,1-30.4,1-30.4l-1.5-24.5l-0.1-1.4c0,0,0,0,0,0l-0.7-12.2l-0.2-3.7l0.2-14.7l4.3-0.2L334.3,167.8z"/>
			<path class="st28" d="M315.4,192.6L315.4,192.6c-0.4,2.3-0.8,4.6-1.2,6.9c0,0,0,0,0,0c-2.3,12.8-4.7,25.2-5.2,27.3
				c-1,4.3-11.4,72.8-11.4,72.8c-3.7,0.8-13.7-0.2-13.7-0.2c0.6-12.2,6-73.5,6-73.5c0-2.9,0.2-8.3,0.4-14.4
				c0.6-15.2,1.5-35.3,1.5-35.3l4.3-8.1c0,0,18.3-3.5,21.7,0.7c0.3,0.3,0.5,0.8,0.5,1.2C318.6,172.4,317.2,182,315.4,192.6z"/>
			<path class="st29" d="M334.3,167.8v39.4l-7.6-2.1l-0.5-12.1l-8,11.1l-2.5,21.3l-1.5-24.5l0.1-0.5l1-7.8l0-0.1l1.3-9.4l-3.2,4.1
				l-4,5.2l0.3,13.2l-19.5,5.8c0.6-15.2,1.5-35.3,1.5-35.3l4.3-8.1c0,0,18.3-3.5,21.7,0.7L334.3,167.8z"/>
		</g>
		<g>
			<path class="st30" d="M328.8,153.5c0.4,7.3,0.4,14.4-1.2,16.3c-0.3,0.3-0.6,0.5-0.9,0.5c-1.4,0.2-3.9,0.3-6.9,0.4
				c-8,0.3-19,0.4-19,0.4l-0.8-84l18.1-0.3l10.8,30.9l0.9,2.6c0,0-1.3,11.3-2.2,14.4C327.3,136.4,328.4,145.1,328.8,153.5z"/>
			<path class="st31" d="M328.8,153.5l-1.2,16.3c-0.3,0.3-0.6,0.5-0.9,0.5c-1.4,0.2-3.9,0.3-6.9,0.4l-0.6-29.9l-8.4,0.8l-9-1
				l-0.4-9.3l4.4-9.9c0,0,10.5,1.3,13.4,0.1c3-1.2,8.5-6.3,8.5-6.3l1.3,2.7l0.9,2.6c0,0-1.3,11.3-2.2,14.4
				C327.3,136.4,328.4,145.1,328.8,153.5z"/>
		</g>
		<g>
			<g>
				<path class="st1" d="M313.3,160.3c-0.1,5.5-1.2,43.6-1.2,43.6s-7.2-0.4-11.7-0.5s-17.9-3.6-17.9-3.6s1.9-5.6,3.9-12
					c0.9-3.2,3.3-15.8,5.4-27.8c0.6-3.5,1.2-6.8,1.7-9.9c0.4-2.3,0.8-4.5,1.1-6.4c0.8-4.6,1.3-7.5,1.3-7.5c-1.9-5.8-4-14.6-5.8-22.9
					c-2.4-10.8-4.2-20.5-4.2-20.5l9.2-5.6l8.3,0.5l11.4,33.6c0,0-1,12.9-1.4,16c0,0.4-0.1,0.9-0.1,1.6
					C313,143.7,313.4,155.5,313.3,160.3z"/>
				<path class="st3" d="M306.3,169.6l-1.8,13.7c0,0-9,1.9-9.8,1.7c-0.8-0.2-2.4-5.6-2.4-6s1.8-9.9,1.8-9.9l-1.1,9.8l1.8,5.1
					l8.7-1.6L306.3,169.6z"/>
				<path class="st3" d="M297.2,168.6c0,0,5.2,0.1,7.5,0.8C304.8,169.4,301.3,167.9,297.2,168.6z"/>
				<path class="st3" d="M303.5,154c0,0-2.5,1.4-6.1,3.3c-1.5,0.8-3.7,1.8-5.7,2.7c0.6-3.5,1.2-6.8,1.7-9.9l8.8-2L303.5,154z"/>
				<path class="st3" d="M314.6,121.3c0,0-0.6,7.3-1,12.3l-9.6,1.7l-6.3-2.6c-0.9-0.8-1.6-1.4-1.6-1.4l-0.1-8.3l8.5,2.6
					C304.6,125.6,314.3,122.1,314.6,121.3z"/>
				<path class="st3" d="M297.5,136.4c0,0.6-1.9,6.8-1.9,7.4l-1.1-0.1c0.8-4.6,1.3-7.5,1.3-7.5c-1.9-5.8-4-14.6-5.8-22.9l0.6-0.9
					c2.1-3.1,0.9-9.8,0.9-10.5c0.3,1.2,4.8,17.4,5,17.9C296.6,120.3,297.5,135.8,297.5,136.4z"/>
			</g>
			<g>
				<path class="st3" d="M295.7,86.5l-0.8,0.6c0,0,3.4,11.8,4.5,13.2l1.2-0.1l-0.4,1.1c0,0,9.4,17.1,14.5,19.9l-11.5-26.9
					L295.7,86.5z"/>
				<path class="st1" d="M301.8,84.1l-6.6,2.2c0,0,1.2,7.1,5.4,12.5l2.7-0.7l-1.3,2.6c0,0,8.6,17.1,12.7,20.7c0,0-3.4-18.9-5.4-24.7
					C307.1,90.8,301.8,84.1,301.8,84.1z"/>
			</g>
		</g>
		<g>
			<path class="st1" d="M341.1,201.5c0,0-1.8,0.8-4.4,1.6c-2.6,0.8-11.5-0.3-11.5-0.3s-4.8-62.5-4.6-63.5c0.1-1,3.4-22.8,3.4-22.8
				l-0.2-6.6L322.1,90l0-0.1c0,0,0.5,0.8,1.2,2.1l0,0c1.1,2,2.9,5.3,4.5,8.3c0.8,1.5,1.6,3,2.3,4.2c1.4,4.4,3.5,10.9,3.4,11.8
				c-0.1,1.3-3.3,21.8-3.5,23c0,0,0,0.1,0,0.1s5.2,20,5.7,23.7c0.3,1.9,1.7,11.6,3,20.8c0.1,0.5,0.2,1.1,0.2,1.6
				C340,194,341.1,201.5,341.1,201.5z"/>
			<path class="st3" d="M335.9,165.2c-2.4,0.6-7.2,1.8-7.2,1.8l7.6,0.7C336.1,166.7,336,165.9,335.9,165.2z"/>
			<path class="st1" d="M330.9,167c0.3,0,6.4,0,6.4,0l1.3,18.1l-6.4-0.8L329,167H330.9z"/>
			<path class="st3" d="M333.4,116.3l-2.7,7l-4.1,7.5l-4.9,1.6c0.1-1,2.4-16,2.4-16s5,1.4,5.9,1
				C330.8,117.2,333.4,116.3,333.4,116.3z"/>
			<g>
				<path class="st3" d="M324.1,116.5l-1.6-16.1l-1-11.3l0.6,1l1.1,2l0,0c0.4,0.7,0.9,1.6,1.4,2.5c0.4,2,0.5,3.9,0.5,3.9
					s0.2,1.4,0.3,4C325.4,105.1,324.1,116.5,324.1,116.5z"/>
				<path class="st1" d="M324.1,116.5c0,0-3.5-13.2-5.7-24.1c0.3-1.5,0.6-3.8,0.4-6l3,0.9c0,0,1.9,7.7,2.8,10.4l-1.3,0.7l1.2,2
					C324.4,100.4,325.8,107.2,324.1,116.5z"/>
			</g>
			<polygon class="st9" points="330,109.9 326.1,110.1 325.6,108.4 329.5,108.2 			"/>
		</g>
		<g>
			<path class="st5" d="M294.7,143.3c0.1-0.1,3.3-2,4-2.8c0.7-0.8,1-1.4,1.2-1.4c0.1,0,1.2,0.4,1,1.6c-0.1,0.3-1.3,2.4-1.3,2.4
				L294.7,143.3z"/>
			<path class="st4" d="M306.2,143.7c0,0-0.4,4.8-0.4,5.3c-0.1,0.5-2.3,5-2.3,5s-5.7-1-6-0.9c-0.3,0.1-4.8,0.5-4.8,0.5
				s-4.8-3-6.4-5.4c-0.7-1.1,0.2-2.5,1.5-3.7l0,0c1.6-1.5,3.8-2.8,3.8-2.8s0.1,0,0.2,0.1c0.1,0.1,0.2,0.1,0.4,0.2
				c0.6,0.4,1.6,0.9,2,0.9c0.6,0.1,6.8-1,6.8-1L306.2,143.7z"/>
			<path class="st5" d="M303.5,154c0,0-5.7-1-6-0.9c-0.3,0.1-4.8,0.5-4.8,0.5s-4.8-3-6.4-5.4c-0.7-1.1,0.2-2.5,1.5-3.7l0,0l4-2.7
				l0.4-0.3c0,0,0,0.2-0.1,0.5c-0.3,1.5-1.3,6-2,7c-0.8,1.2,2.1,2.6,2.1,2.6l6.2,0.5L303.5,154z"/>
		</g>
		<g>
			<path class="st1" d="M285.7,92.7c0,0-17.2,19.4-19.6,21.9c0,0-0.5,4.1-0.5,5.5c0,1.4,11.6,25.8,18.1,31.9c0,0,6.7-3.7,8.6-10.6
				c0,0-12.5-16.1-14.6-20.9l12.2-7.4C289.9,113.2,290.3,98.7,285.7,92.7z"/>
			<polygon class="st3" points="277.7,120.6 275.5,117.7 282,116.3 287.3,113.9 			"/>
		</g>
		<g>
			<path class="st32" d="M305.1,83.3c0,0,2.2,5.7,7,7.9l-3,5.4c0,0-6.8-6.1-7.4-12.5L305.1,83.3z"/>
			<path class="st32" d="M318.4,92.4c-0.2,1-0.4,1.7-0.4,1.7c-1.6-1.8-5.8-2.8-5.8-2.8c2.2-1.7,4.1-6.3,4.1-6.3l2.4,1.1
				c0,0.1,0,0.3,0,0.4C319,88.6,318.7,90.9,318.4,92.4z"/>
			<g>
				<path class="st33" d="M311.3,91.4c-3.8-0.2-5.5-1.7-6-3c-0.5-1.4-0.1-5.2-0.1-5.2s0.6-1.9,1-3.9c0.1-0.5,0.2-1,0.2-1.5
					c0.2-2.5,9.6,1.9,9.6,1.9s-0.3,1.9-0.1,3.5c0.1,0.6,0.2,1.2,0.5,1.7C317.3,86.5,315.1,91.6,311.3,91.4z"/>
				<path class="st34" d="M315.8,83.3c-1.6,1.1-3.4,2-4.8,1.4c-1.8-0.8-3.7-3.4-4.9-5.3c0.1-0.5,0.2-1,0.2-1.5
					c0.2-2.5,9.6,1.9,9.6,1.9S315.6,81.7,315.8,83.3z"/>
				<path class="st33" d="M303.2,65c0,0,0.2,9.5,1.2,11c1,1.5,4.2,6.4,7.1,6.8c3,0.4,8.8-3.6,10.2-7c1.4-3.4,0.5-4.8,0.9-8
					c0.4-3.2,1.8-7.5-0.5-11.1s-16.2-3.1-17.4,0.3C303.6,60.3,303.2,65,303.2,65z"/>
				<path class="st33" d="M304.1,67.2c0,0-1.9-1.9-2.9-1c-1,1-0.4,3.8,0.4,4.7c0.8,1,2.2,1.5,2.2,1.5L304.1,67.2z"/>
				<path class="st22" d="M320.9,70.3c0-0.1-0.1-0.1-0.1-0.2c-0.1-0.1-0.2-0.2-0.3-0.3c-0.2-0.2-0.5-0.3-0.8-0.3
					c-0.5-0.1-1.1,0.2-1.5,0.6c-0.1,0.2,0.1,0.4,0.2,0.2c0.3-0.3,0.7-0.3,1.1-0.3c0.1,0,0.1,0,0.1,0c0,0,0,0,0,0c0,0,0,0,0.1,0
					c0,0,0.1,0.1,0.1,0.1c0,0,0,0,0,0c0,0,0,0,0.1,0c0,0,0.1,0.1,0.1,0.1c0,0,0,0,0,0.1c0,0,0.1,0.1,0,0c0,0,0,0,0,0c0,0,0,0,0,0.1
					c0,0.1,0.1,0.1,0.2,0.2c0.1,0.1,0.2,0.1,0.4,0.1c0.1,0,0.2-0.2,0.2-0.3C321,70.5,321,70.4,320.9,70.3z"/>
				<path class="st22" d="M312.7,69.4c-0.1-0.1-0.1-0.2-0.2-0.3c-0.2-0.2-0.4-0.3-0.7-0.4c-0.3-0.1-0.6-0.1-0.8-0.1
					c-0.3,0-0.7,0.1-0.9,0.3c-0.2,0.1-0.1,0.5,0.1,0.5c0.5,0,0.9-0.2,1.4,0c0,0,0.1,0,0.1,0c0.1,0,0,0,0,0c0,0,0.1,0,0.1,0
					c0,0,0.1,0,0.1,0.1c0,0,0,0,0,0c0,0,0,0,0.1,0c0.1,0.1,0.1,0.1,0.2,0.2c0,0,0,0,0,0c0,0,0.1,0.1,0.1,0.1c0,0,0.1,0,0.1,0.1
					c0.1,0.1,0.4,0,0.3-0.1c0,0,0-0.1,0-0.2C312.8,69.6,312.8,69.5,312.7,69.4z"/>
				<path class="st34" d="M315.9,73.3c-0.1-0.3,0-0.5,0-0.8c0.1-0.3,0.2-0.6,0.3-0.9c0.1-0.3,0.2-0.6,0.1-0.9
					c-0.1-0.2-0.4-0.3-0.5-0.1c-0.1,0.2-0.2,0.5-0.2,0.7c-0.1,0.2-0.2,0.5-0.2,0.7c-0.1,0.5-0.2,1,0,1.5c0.1,0.2,0.3,0.4,0.3,0.6
					c0,0.2,0,0.3-0.1,0.5c-0.2,0.3-0.8,0.3-1.1,0.3c-0.1,0-0.2,0.1-0.1,0.2c0.8,0.8,2.2-0.1,2-1.1C316.1,73.8,315.9,73.6,315.9,73.3
					z"/>
				<path class="st22" d="M321.3,67.7c-0.2-0.1-0.4-0.1-0.6-0.2c-0.2-0.1-0.5-0.1-0.7-0.1c-0.2,0-0.4,0-0.6,0c-0.2,0-0.5,0-0.7,0.2
					c-0.1,0.1-0.1,0.3,0,0.4c0.1,0.1,0.2,0.1,0.3,0.1c0.1,0,0.2,0,0.4-0.1c0.2,0,0.4,0,0.6-0.1c0.2,0,0.4,0,0.6,0c0.2,0,0.4,0,0.6,0
					C321.5,68.1,321.5,67.8,321.3,67.7z"/>
				<path class="st22" d="M313.9,67.1c-0.2-0.1-0.3-0.2-0.4-0.3c-0.1-0.1-0.3-0.2-0.4-0.3c-0.1-0.1-0.3-0.2-0.4-0.2
					c-0.2-0.1-0.4-0.2-0.6-0.2c-0.1,0-0.2,0.1-0.3,0.2c-0.1,0.1-0.1,0.2,0,0.3c0.1,0.1,0.2,0.2,0.3,0.3c0,0,0.1,0,0.2,0.1
					c-0.1,0,0.1,0,0.1,0c0.2,0.1,0.4,0.1,0.5,0.2c0.2,0.1,0.3,0.1,0.5,0.2c0.2,0,0.3,0.1,0.5,0.1C313.9,67.5,314,67.2,313.9,67.1z"
					/>
				<path class="st18" d="M316.8,77.1c-0.5,0.1-0.9,0.3-1.3,0.4c-0.5,0.1-0.9,0.1-1.4,0c-0.8-0.1-1.8-0.4-2.2-1.2
					c-0.1-0.2-0.5-0.1-0.4,0.2c0.4,1,1.4,1.5,2.4,1.7c0.6,0.1,1.1,0,1.7-0.1c0.5-0.1,1.1-0.3,1.5-0.7C317.1,77.2,317,77,316.8,77.1z
					"/>
				<path class="st1" d="M322.2,74.8c0,0-0.1,0.3-0.4,0.9c-0.6,1.4-2,4-3.7,5.3c-2.4,1.8-5.1,3.1-7.1,2.6c-0.9-0.2-2.1-1.3-3.2-2.5
					h0c-1.3-1.5-2.5-3.3-2.8-3.9c0,0,2.9-2.6,3.3-3.7c0,0,5.2-1.8,8.7-0.9C320.5,73.4,322.2,74.8,322.2,74.8z"/>
				<path class="st1" d="M308.1,73.9c0,0-1.8-4.2-4.5-5.6l0.2-0.4c2.9,1.4,4.7,5.6,4.7,5.8L308.1,73.9z"/>
				<path class="st1" d="M305,77.2c-0.1-0.1-1.5-2.3-2.5-6.1l0.5-0.1c1,3.7,2.8,6.1,2.8,6.1L305,77.2z"/>
				<path class="st7" d="M323.1,66.1c-0.5-1-2.5-2.7-4.7-3.5h0c0,0,0,0-0.1,0c-0.8-0.3-1.6-0.4-2.4-0.4c-3.2,0-6.4,1.4-8.5,4
					c-2,2.7-3.1,9.9-3.1,9.9c-2.1-0.9-3.5-2.8-4.4-4.9c0,0,0,0,0,0c-0.1-0.2-0.1-0.3-0.2-0.5c-1.6-4.2-1.5-9.3-1.2-10.8
					c0.4-2.3,1.2-7.4,7.5-10.3c1-0.5,4-0.9,5.6-0.8c2.1,0.1,4,0.7,5.7,1.7c1.4,0.8,2.7,1.8,3.9,3.1c0,0,0,0,0,0
					c1.7,1.9,2.5,4.3,2.8,6.8C324.4,63.2,323.1,65.4,323.1,66.1z"/>
				<path class="st20" d="M318.3,62.5c-0.8-0.3-1.6-0.4-2.4-0.4c-3.2,0-6.4,1.4-8.5,4c-2,2.7-3.1,9.9-3.1,9.9s0-4.9,0.5-6.7
					c0.6-1.7,3.6-5.7,5-6.4c1.4-0.7,1.2-0.7,3.3-0.9C315.2,61.7,316.7,61.8,318.3,62.5z"/>
				<path class="st20" d="M310.8,49.4c-2.8,0.1-5.8,2.2-5.8,2.2s0.7,0.9,0.8,1.7c0.1,0.8-1.9,2.3-3,2.6c-1.1,0.3-1.2-0.8-1.2-0.8
					s-2.2,4-2.4,5.8c-0.2,1.8,0.7,9.6,0.7,10.1c-0.1-0.2-0.1-0.3-0.2-0.5c-1.6-4.2-1.5-9.3-1.2-10.8c0.4-2.3,1.2-7.4,7.5-10.3
					c1-0.5,4-0.9,5.6-0.8c2.1,0.1,4,0.7,5.7,1.7C315.6,50,312.7,49.4,310.8,49.4z"/>
				<path class="st8" d="M323.1,66.1c-0.4-1.3-2.2-3.2-2.4-3.3l1.5-0.5l0.4-1.4c0,0,0.2-2.3-0.1-3.5c-0.3-1.3-1.6-4-1.6-4
					s0.1,0,0.3,0.1c0,0,0,0,0,0c1.7,1.9,2.5,4.3,2.8,6.8C324.4,63.2,323.1,65.4,323.1,66.1z"/>
				<path class="st19" d="M321.8,75.7c-0.6,1.4-2,4-3.7,5.3c-2.4,1.8-5.1,3.1-7.1,2.6c-0.9-0.2-2.1-1.3-3.2-2.5c0.3,0.1,3,1.1,4,1.2
					c1.1,0,3.3-1.2,4-1.8c0.7-0.6,2.8-3,3-3.8c0.2-0.7-0.1-1.7-0.1-1.7l-1.7-1.8c0.3,0,3.2,1.1,4,1.7
					C321.3,75.1,321.6,75.4,321.8,75.7z"/>
			</g>
		</g>
	</g>
	<g>
		<g>
			<path class="st9" d="M180.5,290.3c0,0.4-0.9,9.4-1,12.4c-0.1,3-0.3,7.9,0.9,8.8c1.2,0.9,9.5,1,11.4,0.1c1.8-0.9,0.9-8,0.8-10.2
				c-0.1-2.2-1.3-11.1-1.3-11.1H180.5z"/>
			<path class="st19" d="M181.2,291.4c0,0.3-0.8,11.8-0.6,13.1c0.2,1.3,10.1,1.5,10.5,0.8s-0.9-13.7-0.9-13.7L181.2,291.4z"/>
		</g>
		<g>
			<g>
				<path class="st9" d="M169.7,308.5l-0.1,1.5c0,0-4.2,0-4.4-0.3c-0.2-0.3,0.2-7.2,0.2-7.2s-3.4,5.2-5,6.2
					c-1.6,1-12.8,1.2-13.8,0.5c-1.1-0.7-1.6-2.7-0.7-3.8c1-1.1,5.2-2,6.1-2.4c0.9-0.4,4.3-6.7,5.9-8.4c1.6-1.7,1.7-4.4,1.7-4.4
					l7.4,0.5l2.1,0.1C169.3,291.1,169.7,308.5,169.7,308.5z"/>
				<path class="st19" d="M167.1,290.7c-0.1,0.9-0.5,5.7-2.2,8.4c-1.9,2.9-9.2,6-12.9,4c0.9-0.4,4.3-6.7,5.9-8.4
					c1.6-1.7,1.7-4.4,1.7-4.4L167.1,290.7z"/>
			</g>
			<g>
				<path class="st35" d="M171.7,236.3c0,0,0.6,13,0.2,17c-0.4,4.1-1.6,38.1-1.6,38.1c-0.6,0.1-1.3,0.2-2.1,0.3
					c-4.6,0.3-10.3-0.7-10.3-0.7c0-3.9-1.2-51.3-1.2-51.3s-4.1-28.1-5-37.6c-0.6-5.9-0.3-11.8,0-15.4c0.2-2.2,0.4-3.5,0.4-3.5l24,1
					L171.7,236.3z"/>
				<path class="st36" d="M171.7,236.3c0,0,0.6,13,0.2,17c-0.4,4.1-1.6,38.1-1.6,38.1c-0.6,0.1-1.3,0.2-2.1,0.3l1.5-15.6l-1.2-36.6
					l-3.3-0.8l2.3-2.7c0,0,2.1-7,2.3-9.1c0.2-2.1-2.1-34.6-2.1-34.6l-16-5.6c0.2-2.2,0.4-3.5,0.4-3.5l24,1L171.7,236.3z"/>
			</g>
		</g>
		<g>
			<path class="st35" d="M196.7,210c-0.4,6-2.9,23.2-2.9,23.2s0,8.3-0.1,18.6c-0.1,15.7-0.2,37.2-0.3,40.3c0,0-8.7,0.8-13.9-0.4
				c0,0-3.5-55-3.5-57.9c0-2.9-6.2-50.3-6.2-50.3l6.8-0.4l19.5-1.3C195.9,182.3,197.1,204,196.7,210z"/>
			<path class="st36" d="M196.7,210c-0.4,6-2.9,23.2-2.9,23.2s0,8.3-0.1,18.6l-1.3-19.4l1.5-23l-1.4-18.9l-20.3-0.3l-1.6-5.4
				l5.9-1.8l19.5-1.3C195.9,182.3,197.1,204,196.7,210z"/>
		</g>
		<g>
			<g>
				<path class="st4" d="M158.6,149.9c-0.2,1.6-0.6,3.3-1.1,5.1h0c-1.8,6.6-4.9,13.6-4.9,13.6s-0.5-1.1-0.9-2.3
					c-0.4-0.9-0.7-1.9-0.9-2.5c-0.1-0.2-0.1-0.4-0.1-0.5c0-0.6,0.9-3.7,1.3-4.9c0.1-0.3,0.1-0.5,0.1-0.5s0-1.1-0.1-2.7
					c-0.2-5.8-0.7-18.7-0.7-19.7c0-0.7,0-4.5,0.1-7.7c0-2.5,0.1-4.7,0.1-4.7l6.8,0.6C158.3,123.7,159.5,142.5,158.6,149.9z"/>
				<path class="st5" d="M157.5,155c-1.8,6.6-4.9,13.6-4.9,13.6s-0.5-1.1-0.9-2.3c0.1-0.4,0.2-1.1,0.3-2c0.2-1.7,0.8-5.3,0.8-5.3
					l-0.8-0.6c0.1-0.3,0.1-0.5,0.1-0.5s0-1.1-0.1-2.7L157.5,155z"/>
			</g>
			<g>
				<path class="st36" d="M159.1,125.9c-0.5,0.1-1.1,0.1-1.7,0.1l-0.7,31.6c-1.5,0.2-2.7,0.2-3.6,0.1c-1.4-0.2-2-0.5-2-0.5
					c-1.5-12-1.5-36.6-0.8-42.3c0,0,0,0,0-0.1c0.5-5,1.4-10.6,2.8-13.8c0.9-2.1,1.9-3.7,3.1-5c2.6-3,5.3-4.1,5.3-4.1
					s0.1,2.3,0.1,5.7C161.6,107.3,161.6,125.6,159.1,125.9z"/>
				<path class="st35" d="M151.6,130.6c0.3,2.1,1.2,21.6,1.5,27c-1.4-0.2-2-0.5-2-0.5c-1.5-12-1.5-36.6-0.8-42.3c0,0,0,0,0-0.1
					c0.5-5,1.4-10.6,2.8-13.8c0.9-2.1,1.9-3.7,3.1-5c-1.3,3.7-3.8,10.7-4,11.7C151.9,109,151.2,128.2,151.6,130.6z"/>
			</g>
		</g>
		<g>
			<path class="st35" d="M199,183c0,0-12.3,2.7-21.7,3.4c-9.4,0.6-28-1.9-28-1.9s0.9-8.8,1.8-11.5c0.9-2.7,6.3-34.7,6.3-34.7
				s-6.6-20.6-6.3-21.5c0.6-2.2,2.4-8.8,3.4-10.6c0.9-1.8,4.8-12.9,7-14.2c2.2-1.3,7.9-2.4,7.9-2.4l14,0.1l8.1,2
				c0,0,0.1,12.8-0.3,19.9c-0.1,1.8-0.2,3.2-0.4,4c-0.8,3.7-2.4,21.3-2.4,23.7c0,1.4,3.4,15.1,6.3,26.8C196.9,175.2,199,183,199,183
				z"/>
			<path class="st36" d="M189.1,164.6l4.6,6.6l-23.3-1.3l-8.4-30.6l-4.7-1c0,0-6.6-20.6-6.3-21.5c5.7,2.8,10.7,1,10.7,1l4.3,4.7
				l-0.4-5c0,0,8.6,3,11.9,3c3.2,0,6.2-2.4,6.8-3.9c0.6-1.4,4-12.1,4-12.1l2.8,7.2c-0.1,1.8-0.2,3.2-0.4,4
				c-0.8,3.7-2.4,21.3-2.4,23.7c0,1.4,3.4,15.1,6.3,26.8L189.1,164.6z"/>
			
				<rect x="176.1" y="104.7" transform="matrix(0.9964 8.500275e-002 -8.500275e-002 0.9964 9.6134 -14.8079)" class="st1" width="5.2" height="1.6"/>
		</g>
		<g>
			<polygon class="st21" points="196.5,155.5 170.9,166.4 166,155 164.9,152.4 154.7,128.6 180.3,117.6 189.3,138.7 194.2,150.1 			
				"/>
			<path class="st37" d="M173.8,154.3c1.4-0.9,7.7-3.2,11.4-3.4c1.9-0.1,5.8-0.5,9.1-0.8l-4.9-11.4l-23.4,11l-1.1,2.6l1.1,2.6
				C168.6,155,172.8,154.9,173.8,154.3z"/>
		</g>
		<g>
			<path class="st4" d="M204.4,133.3c-0.1,0.6-1.8,4.4-4.2,5.7c-0.9,0.5-4.8,2.2-9.2,4c-7.1,2.9-15.5,6.4-15.5,6.4l0,0
				c-0.1,0.1-0.7,1.1-1.3,2.1c-0.4,0.5-0.8,1.1-1.1,1.4c-0.9,0.9-6.7,2.7-8.7,2.2c-0.7-0.2-1.5-0.8-2.1-1.6
				c-0.6-0.7-1.1-1.5-1.6-2.2c-0.1-0.2-0.2-0.3-0.3-0.4c-0.3-0.6-0.6-1-0.6-1.1v-0.2c0-0.2,0.1-0.5,0.2-0.8c0.2-0.7,0.5-1.5,0.8-1.9
				l2.6-1.1c0,0-2.2,0.1-3-0.3c-0.6-0.3-1.2-1.4-1.2-1.9v0c0-0.2,0.1-0.3,0.3-0.2c0.8,0.1,6.1-0.5,6.9-0.7c0.8-0.2,4.8,1.3,5,1.4
				l0,0c0,0,7.9-3,11.2-5.8c3.3-2.8,10.1-7.5,10.1-7.5s-1.3-4.4-2.1-7.1c-0.3-1.1-0.5-1.9-0.5-1.9l11-2.2c0,0,0.5,2,1.1,4.4
				C203.3,127.7,204.5,132.9,204.4,133.3z"/>
			<path class="st6" d="M171.5,143.9c0,0-4.6-1-5.1-0.9c-0.4,0.1-4.3,0.6-4.9,0.6s-2.1,0.4-2.3-0.1v0c0-0.2,0.1-0.3,0.3-0.2
				c0.8,0.1,6.1-0.5,6.9-0.7C167.3,142.3,171.3,143.8,171.5,143.9L171.5,143.9z"/>
			<path class="st6" d="M163.9,147.7l-1.9,0.8l-2,1.1v-0.2c0-0.2,0.1-0.5,0.2-0.8L163.9,147.7z"/>
			<path class="st5" d="M164.2,150.5c-0.4,0.1-2.8,0.6-3.4,0.7c-0.1-0.2-0.2-0.3-0.3-0.4c0.4,0,1.1-0.1,1.5,0
				C162.6,150.8,163.9,150.6,164.2,150.5z"/>
			<path class="st5" d="M193.1,139.7c-1.1,0.5-17.6,8.5-17.6,8.5l-2.8,3.6l0.1,0c-0.6,0.5-1.2,0.9-1.5,1.1c-0.9,0.4-6.5,2-7,1.8
				c-0.4-0.2-0.7-0.6-0.7-0.6l1.7-0.8l-1.4,0.2h-1.5c0.7,0.8,1.4,1.5,2.2,1.7c2,0.5,7.8-1.4,8.7-2.2c0.3-0.3,0.7-0.8,1.1-1.4l0,0
				c0.1-0.2,0.3-0.4,0.4-0.6c0,0,0-0.1,0.1-0.1c0.1-0.1,0.2-0.2,0.2-0.4c0.4-0.6,0.6-1,0.7-1.1l0,0c0,0,8.4-3.4,15.5-6.4l9-5.7
				C199.7,137.4,194.2,139.2,193.1,139.7z"/>
		</g>
		<g>
			<path class="st35" d="M202.4,137.9c-2.1,2.1-26.3,13-26.3,13c-0.2-0.8-0.4-1.6-0.8-2.4c-1-2.8-2.5-5.3-2.5-5.3
				c6-3.1,20-12.7,20-12.7c-0.7-1.7-1.5-4.6-2.3-7.6c-1.4-5.4-2.7-11.3-2.7-11.6c0,0,0,0,0,0c-0.4-5.1-0.6-10.4,0.1-12.8
				c1.4-5,3.6-6.8,3.6-6.8s3,2.7,5.4,6.7c0.5,0.8,1,2,1.5,3.4c0,0,0,0,0,0c0,0,0,0,0,0c1.2,3.6,2.5,8.8,3.3,13c0,0,0,0.1,0.1,0.3
				c0.5,2.4,0.8,4.4,0.9,5.5v0c0.7,4.1,2,10.4,2,12.1C204.8,135.8,204.4,135.8,202.4,137.9z"/>
			<path class="st36" d="M202.4,137.9c-2.1,2.1-26.3,13-26.3,13c-0.2-0.8-0.4-1.6-0.8-2.4c1.5-1,10.9-4.5,13.9-6.5
				c3.2-2.1,12.1-6.9,12.7-7.8c0.6-0.9-0.4-11.4-0.9-16.6c-0.5-5.1-2.4-15.2-2.6-15.8c0,0,0,0,0,0c1.2,3.6,2.5,8.8,3.3,13
				c0,0,0,0.1,0.1,0.3c0.5,2.4,0.8,4.4,0.9,5.5v0c0.7,4.1,2,10.4,2,12.1C204.8,135.8,204.4,135.8,202.4,137.9z"/>
		</g>
		<g>
			<path class="st1" d="M165.4,76.1c0-0.2-1-5.6-1.1-7.2l0.5,0c0.1,1.6,1.2,7.1,1.2,7.1L165.4,76.1z"/>
		</g>
		<g>
			<path class="st17" d="M183.3,89.7c-3.4,6.2-11.6,11.1-11.6,11.1c-1.9-4.2-2.4-11.2-2.4-11.2s0,0,0-0.1c0.3-0.6,0.5-1.2,0.7-1.9
				c0-0.1,0.1-0.3,0.1-0.4c0.2-0.8,0.3-1.7,0.3-2.5c0.1-1.3,0-2.2,0-2.2s2.7-1.2,5.4-1.9c2.9-0.7,5.8-0.9,5.9,1.4c0,0.2,0,0.4,0,0.6
				c0,0.3,0,0.6,0.1,0.9c0.1,1.4,0.4,2.7,0.7,3.7C182.8,88.6,183.2,89.4,183.3,89.7L183.3,89.7z"/>
			<path class="st1" d="M183.3,89.7c-3.4,6.2-11.6,11.1-11.6,11.1c-1.9-4.2-2.4-11.2-2.4-11.2s0,0,0-0.1c0.1-0.3,0.5-1.2,0.7-1.9
				c0-0.2,0.1-0.3,0.1-0.4c0,0,0,0,0,0c0,0,7.1,1.9,12.4,0L183.3,89.7L183.3,89.7z"/>
			<path class="st3" d="M175.4,88.5c0.5,0,0.9-0.2,1.5-0.5c-1.2,0-2.4-0.1-3.4-0.2C174.1,88.2,174.8,88.5,175.4,88.5z"/>
			<path class="st18" d="M181.8,83.5c-1.1,1.3-4.3,4.9-6.4,5c-1.6,0.1-3.6-2-5-3.8c0.1-1.3,0-2.2,0-2.2s2.7-1.2,5.4-1.9
				c2.1,0.6,4.8,1.3,5.9,2C181.7,82.9,181.8,83.2,181.8,83.5z"/>
			<path class="st17" d="M164.7,64.7c0,0,0.6,12.1,1.4,13.8c0.8,1.7,7.2,7,8.8,7.5c1.6,0.6,7-2.5,9.1-5.8c2.1-3.3,2.2-7.1,2.5-11
				c0.3-4,1.3-8.5-1.4-10s-13.1-3.5-17.3-1.7C163.5,59.3,164.7,64.7,164.7,64.7z"/>
			<g>
				<path class="st21" d="M170.9,71c-0.1-0.1-0.1-0.2-0.2-0.2c-0.1-0.1-0.2-0.1-0.3-0.1c-0.1,0-0.2,0-0.3,0.1c0,0,0,0,0,0
					c0,0,0,0,0,0c-0.1,0.1-0.2,0.1-0.2,0.2c0,0,0,0,0,0c-0.1,0.1-0.1,0.2-0.1,0.3c0,0.1,0,0.1,0,0.2c0,0.1,0.1,0.2,0.2,0.3
					c0.1,0.1,0.1,0.1,0.2,0.1c0.1,0,0.2,0.1,0.3,0.1c0.1,0,0.2,0,0.3-0.1c0.1,0,0.2-0.1,0.2-0.1c0.1-0.1,0.1-0.2,0.2-0.3
					c0,0,0,0,0-0.1c0-0.1,0-0.1,0-0.2C171,71.2,170.9,71.1,170.9,71z"/>
				<path class="st21" d="M179.3,70.9c0,0-0.1-0.2-0.1-0.2c0-0.1-0.1-0.1-0.1-0.2c-0.1-0.1-0.2-0.1-0.3-0.2c-0.1,0-0.1-0.1-0.2-0.1
					c-0.1,0-0.2,0-0.3,0c-0.1,0-0.1,0.1-0.2,0.1c-0.1,0-0.1,0.1-0.2,0.1c-0.1,0.1-0.1,0.1-0.1,0.2c0,0,0,0,0,0l0,0c0,0,0,0,0,0
					c-0.1,0.1-0.1,0.2-0.1,0.4c0,0.1,0,0.1,0,0.2c0,0.1,0.1,0.2,0.2,0.3c0,0.1,0.1,0.1,0.2,0.1c0.1,0,0.2,0.1,0.3,0.1
					c0,0,0.1,0,0.1,0c0,0,0,0,0,0c0,0,0,0,0,0c0,0,0,0,0,0c0,0,0,0,0,0c0,0,0,0,0,0c0,0,0,0,0,0c0,0,0.1,0,0.1,0
					c0.1,0,0.2,0,0.3-0.1c0.1,0,0.1-0.1,0.2-0.1c0-0.1,0.1-0.1,0.1-0.2c0.1-0.1,0.1-0.2,0.1-0.3C179.3,71.2,179.3,71,179.3,70.9z"/>
				<path class="st12" d="M171.9,68.3c-0.2-0.3-0.7-0.3-1-0.3c-0.3,0-0.7,0-1,0c-0.7,0.1-1.3,0.3-1.8,0.6c-0.2,0.1-0.1,0.5,0.2,0.4
					c0.6-0.2,1.2-0.3,1.7-0.4c0.3,0,0.6,0,0.9,0c0.1,0,0.3,0.1,0.4,0.1c0.2,0,0.4,0,0.6-0.1C172,68.7,172,68.5,171.9,68.3z"/>
				<path class="st12" d="M180.6,68.5c-0.5-0.3-1-0.5-1.5-0.5c-0.3,0-0.5,0-0.8,0c-0.1,0-0.3,0-0.4,0.1c-0.1,0-0.1,0-0.2,0.1
					c0,0-0.1,0-0.1,0c0,0-0.1,0-0.1,0c-0.3,0-0.5,0.3-0.4,0.6c0.1,0.3,0.5,0.3,0.7,0.1c0.1-0.1,0.4-0.2,0.6-0.2
					c0.2-0.1,0.4-0.1,0.6-0.1c0.5,0,0.9,0.1,1.3,0.3C180.6,68.9,180.8,68.6,180.6,68.5z"/>
				<path class="st12" d="M174.9,76.8c-0.5-0.1-1-0.2-1.3-0.6c-0.1-0.1-0.2-0.3-0.2-0.5c0-0.2,0.2-0.3,0.4-0.4
					c0.2-0.1,0.4-0.2,0.5-0.4c0.2-0.2,0.2-0.5,0.3-0.7c0-0.3,0.1-0.6,0.1-0.9c0-0.3,0-0.6-0.1-0.9c-0.1-0.3-0.6-0.4-0.8,0
					c-0.2,0.6,0,1.3-0.1,2c0,0.2-0.2,0.3-0.4,0.5c-0.2,0.2-0.3,0.3-0.4,0.6c-0.2,0.4,0,1,0.4,1.3c0.4,0.4,1,0.4,1.6,0.5
					C175.1,77.2,175.1,76.9,174.9,76.8z"/>
				<path class="st18" d="M176.9,78.9c-0.3,0.1-0.5,0.3-0.8,0.4c-0.3,0.1-0.6,0.1-0.9,0.1c-0.3,0-0.6,0-0.8-0.1
					c-0.1,0-0.3-0.1-0.4-0.1c-0.2,0-0.3-0.1-0.4-0.2c-0.4-0.1-0.6,0.3-0.4,0.6c0.2,0.3,0.7,0.4,1,0.5c0.4,0.1,0.8,0.1,1.1,0
					c0.3-0.1,0.7-0.2,1-0.4c0.3-0.2,0.6-0.3,0.8-0.6C177.2,79,177.1,78.8,176.9,78.9z"/>
				<path class="st12" d="M175.2,81.5c0,0-0.1-0.1-0.1-0.1c0,0-0.1,0-0.2,0c-0.1,0-0.1,0-0.2,0c-0.1,0-0.3,0-0.4,0.1
					c-0.1,0-0.2,0.2-0.2,0.3c0,0.1,0.2,0.2,0.3,0.2c0,0,0.1,0,0.1,0c0.1,0,0.2,0,0.3,0c0,0,0.1,0,0.1,0c0.1,0,0.1,0,0.2,0
					c0,0,0.1,0,0.1,0c0.1,0,0.1-0.1,0.1-0.2C175.3,81.6,175.3,81.6,175.2,81.5z"/>
			</g>
			<path class="st17" d="M185,71.9c0,0,2.1-2.5,3.5-0.8c1.4,1.7-3.1,6.3-3.1,6.3L185,71.9z"/>
			<g>
				<path class="st1" d="M182.9,77.5l-0.4-0.2c0.1-0.2,2.5-4.7,4.2-6.1l0.3,0.4C185.3,72.9,182.9,77.5,182.9,77.5z"/>
			</g>
			<g>
				<path class="st1" d="M183.9,79.1l-0.2-0.5l0.1,0.2l-0.1-0.2c0,0,1.4-0.7,3-3.5l0.4,0.2C185.5,78.4,183.9,79.1,183.9,79.1z"/>
			</g>
			<path class="st1" d="M165.4,76.1c0,0,4.4-2.2,9.7-2c5.3,0.2,9.9,4.1,9.9,4.1s-2,3.9-4.3,5.9s-4.8,2.8-6.6,2.7
				c-1.8-0.1-5.5-3.3-6.8-5.4C166.1,79.4,165.4,76.1,165.4,76.1z"/>
			<path class="st7" d="M190.5,70c-0.8,4.5-5.3,8-5.5,8.2c1.1-2.1,2.1-7.3,1.1-8.7c-0.8-1.1-1.9-3.4-4.2-4.8
				c-0.6-0.4-1.3-0.7-2.2-0.9c-3.9-0.9-8.1-1.5-12.2,1.7c-3.8,2.9-3,6.5-2.8,7.2c-0.2-0.4-0.3-0.8-0.4-1.2c0,0,0,0,0,0
				c-2.6-8.6,0.3-16.6,6-19.4c4.1-2,9.1-1.5,13.1,0.2c1.1,0.5,2,1,2.9,1.6c0.8,0.5,1.4,1.1,1.9,1.8C191.7,59.7,191.3,65.3,190.5,70z
				"/>
			<path class="st19" d="M172.5,75.1c0,0,3.7,0,6.1,1c2.4,1,5.4,2.4,5.4,2.4s-2.4,4.8-4.8,6.1c-2.4,1.3-4.6,1.5-4.6,1.5
				s1.6-1.3,2.4-2.8c0.8-1.5,1.7-3.8,0.5-5.1C176.1,77,172.5,75.1,172.5,75.1z"/>
			<path class="st8" d="M190.5,70c-0.8,4.5-5.3,8-5.5,8.2c1.1-2.1,2.1-7.3,1.1-8.7c-0.8-1.1-1.9-3.4-4.2-4.8
				c0.7,0.1,3.6,0.6,4.8,1.1c1.4,0.6,1.5,0.4,0.3-1.9c-1.1-2.3-1.6-3.2-0.2-3.7c1.4-0.4,3.2,0.6,1.9-1.9c-0.8-1.4-1.7-3.2-2.4-4.6
				c0.8,0.5,1.4,1.1,1.9,1.8C191.7,59.7,191.3,65.3,190.5,70z"/>
			<path class="st20" d="M183.4,52.2c-1.1-0.3-2.2-0.5-2.8-0.4c-1.2,0.2-4.7,0.1-7.2,0.8c-2.5,0.7-5.4,2.6-5.4,2.6s-2.6,2.9-3.1,5.2
				c-0.6,2.2-0.5,10.6-0.5,11c-2.6-8.6,0.3-16.6,6-19.4C174.4,50.1,179.5,50.5,183.4,52.2z"/>
		</g>
	</g>
</g>
</svg>
